<svg width="76" height="90" viewBox="0 0 76 90" fill="none" xmlns="http://www.w3.org/2000/svg">
<path d="M63.3225 86.3891C58.4119 91.1385 53.0503 90.3886 47.8891 88.1389C42.4273 85.8392 37.4164 85.7392 31.6539 88.1389C24.4383 91.2385 20.6301 90.3386 16.3207 86.3891C-8.13222 61.2423 -4.52441 22.9471 23.2357 21.5473C30.0004 21.8972 34.7106 25.2468 38.6691 25.5468C44.582 24.3469 50.2442 20.8974 56.5579 21.3473C64.1243 21.9472 69.8367 24.9468 73.5948 30.3462C57.9609 39.695 61.669 60.2424 76 65.9917C73.1438 73.4907 69.4358 80.9398 63.2724 86.4391L63.3225 86.3891ZM38.1681 21.2473C37.4164 10.0987 46.4861 0.899886 56.9087 0C58.3618 12.8984 45.1833 22.4972 38.1681 21.2473Z" fill="black"/>
</svg>
