<svg width="40" height="38" viewBox="0 0 40 38" fill="none" xmlns="http://www.w3.org/2000/svg">
<path d="M12.5 2.78667L40 0V27.8667C40 29.8823 39.2098 31.8154 37.8033 33.2407C36.3968 34.666 34.4891 35.4667 32.5 35.4667C30.5109 35.4667 28.6032 34.666 27.1967 33.2407C25.7902 31.8154 25 29.8823 25 27.8667C25 25.851 25.7902 23.9179 27.1967 22.4927C28.6032 21.0674 30.5109 20.2667 32.5 20.2667C34.425 20.2667 36.175 21.0013 37.5 22.192V10.2347L15 12.768V30.4C15 32.4156 14.2098 34.3487 12.8033 35.774C11.3968 37.1993 9.48912 38 7.5 38C5.51088 38 3.60322 37.1993 2.1967 35.774C0.790177 34.3487 0 32.4156 0 30.4C0 28.3844 0.790177 26.4513 2.1967 25.026C3.60322 23.6007 5.51088 22.8 7.5 22.8C9.425 22.8 11.175 23.5347 12.5 24.7253V2.78667ZM15 5.06667V10.2093L37.5 7.70133V2.76133L15 5.06667ZM12.5 30.4C12.5 29.0562 11.9732 27.7675 11.0355 26.8173C10.0979 25.8671 8.82608 25.3333 7.5 25.3333C6.17392 25.3333 4.90215 25.8671 3.96447 26.8173C3.02678 27.7675 2.5 29.0562 2.5 30.4C2.5 31.7438 3.02678 33.0325 3.96447 33.9827C4.90215 34.9329 6.17392 35.4667 7.5 35.4667C8.82608 35.4667 10.0979 34.9329 11.0355 33.9827C11.9732 33.0325 12.5 31.7438 12.5 30.4ZM37.5 27.8667C37.5 26.5229 36.9732 25.2342 36.0355 24.284C35.0979 23.3338 33.8261 22.8 32.5 22.8C31.1739 22.8 29.9021 23.3338 28.9645 24.284C28.0268 25.2342 27.5 26.5229 27.5 27.8667C27.5 29.2104 28.0268 30.4992 28.9645 31.4493C29.9021 32.3995 31.1739 32.9333 32.5 32.9333C33.8261 32.9333 35.0979 32.3995 36.0355 31.4493C36.9732 30.4992 37.5 29.2104 37.5 27.8667Z" fill="#2C49AE"/>
</svg>
