<svg width="23" height="23" viewBox="0 0 23 23" fill="none" xmlns="http://www.w3.org/2000/svg">
<path d="M2.22008 15.3333V2.19048H0V0H3.33012C3.62452 0 3.90686 0.115391 4.11504 0.320788C4.32321 0.526185 4.44016 0.804763 4.44016 1.09524V14.2381H18.2468L20.4669 5.47619H6.66024V3.28571H21.89C22.0587 3.28572 22.2252 3.32368 22.3769 3.3967C22.5285 3.46973 22.6613 3.5759 22.7651 3.70715C22.8689 3.8384 22.941 3.99127 22.9759 4.15414C23.0109 4.31701 23.0077 4.4856 22.9667 4.6471L20.1916 15.5995C20.1315 15.8363 19.9929 16.0465 19.7978 16.1968C19.6027 16.347 19.3624 16.4286 19.1149 16.4286H3.32901C3.03461 16.4286 2.75227 16.3132 2.54409 16.1078C2.33592 15.9024 2.22008 15.6238 2.22008 15.3333ZM4.44016 23C3.85136 23 3.28667 22.7692 2.87033 22.3584C2.45398 21.9476 2.22008 21.3905 2.22008 20.8095C2.22008 20.2286 2.45398 19.6714 2.87033 19.2606C3.28667 18.8498 3.85136 18.619 4.44016 18.619C5.02896 18.619 5.59365 18.8498 6.00999 19.2606C6.42634 19.6714 6.66024 20.2286 6.66024 20.8095C6.66024 21.3905 6.42634 21.9476 6.00999 22.3584C5.59365 22.7692 5.02896 23 4.44016 23ZM17.7606 23C17.1718 23 16.6072 22.7692 16.1908 22.3584C15.7745 21.9476 15.5406 21.3905 15.5406 20.8095C15.5406 20.2286 15.7745 19.6714 16.1908 19.2606C16.6072 18.8498 17.1718 18.619 17.7606 18.619C18.3494 18.619 18.9141 18.8498 19.3305 19.2606C19.7468 19.6714 19.9807 20.2286 19.9807 20.8095C19.9807 21.3905 19.7468 21.9476 19.3305 22.3584C18.9141 22.7692 18.3494 23 17.7606 23Z" fill="white"/>
</svg>
