<svg width="78" height="78" viewBox="0 0 78 78" fill="none" xmlns="http://www.w3.org/2000/svg">
<g filter="url(#filter0_d_325_534)">
<path d="M49.6354 27.5769L43.2678 21.2093L34.451 30.026L32.4918 28.0667L30.5325 30.026L32.4918 31.9853L30.5325 33.9446L28.5732 31.9853L26.614 33.9446L28.5732 35.9038L25.6343 38.8428L27.5936 40.802L30.5325 37.8631L34.451 41.7817L36.4103 39.8224L32.4918 35.9038L34.451 33.9446L38.8594 38.3529C41.8375 41.331 46.6573 41.331 49.6354 38.3529C52.6135 35.3748 52.6135 30.555 49.6354 27.5769ZM40.8187 36.3937L36.4103 31.9853L43.2678 25.1278L47.6762 29.5362C49.5669 31.4269 49.5669 34.503 47.6762 36.3937C45.7855 38.2844 42.7094 38.2844 40.8187 36.3937Z" fill="white"/>
<path d="M41.3917 67.7056C39.875 69.2222 37.8917 70 35.9083 70C33.925 70 31.9417 69.2222 30.425 67.7056L6.275 43.5556C3.24167 40.5222 3.24167 35.5833 6.275 32.55L36.5694 2.25556C38.0083 0.816667 39.9917 0 42.0528 0H66.2028C70.4806 0 73.9806 3.5 73.9806 7.77778V31.9278C73.9806 33.9889 73.1639 35.9722 71.6861 37.4111L41.3917 67.7056ZM66.2028 7.77778H42.0528L11.7583 38.0722L35.9083 62.2222L66.2028 31.9278V7.77778Z" fill="white"/>
<path d="M57.4528 21.3889C54.7681 21.3889 52.5917 19.2125 52.5917 16.5278C52.5917 13.8431 54.7681 11.6667 57.4528 11.6667C60.1375 11.6667 62.3139 13.8431 62.3139 16.5278C62.3139 19.2125 60.1375 21.3889 57.4528 21.3889Z" fill="white"/>
</g>
<defs>
<filter id="filter0_d_325_534" x="0" y="0" width="77.9806" height="78" filterUnits="userSpaceOnUse" color-interpolation-filters="sRGB">
<feFlood flood-opacity="0" result="BackgroundImageFix"/>
<feColorMatrix in="SourceAlpha" type="matrix" values="0 0 0 0 0 0 0 0 0 0 0 0 0 0 0 0 0 0 127 0" result="hardAlpha"/>
<feOffset dy="4"/>
<feGaussianBlur stdDeviation="2"/>
<feComposite in2="hardAlpha" operator="out"/>
<feColorMatrix type="matrix" values="0 0 0 0 0 0 0 0 0 0 0 0 0 0 0 0 0 0 0.25 0"/>
<feBlend mode="normal" in2="BackgroundImageFix" result="effect1_dropShadow_325_534"/>
<feBlend mode="normal" in="SourceGraphic" in2="effect1_dropShadow_325_534" result="shape"/>
</filter>
</defs>
</svg>
