<svg width="49" height="38" viewBox="0 0 49 38" fill="none" xmlns="http://www.w3.org/2000/svg">
<path fill-rule="evenodd" clip-rule="evenodd" d="M10.0481 0.469809C11.2013 0.0552716 12.3726 5.85251e-09 13.3412 5.85251e-09H14.7359C17.09 5.85251e-09 19.3849 0.736955 21.3061 2.11184L22.4501 2.9294C23.0498 3.35829 23.7664 3.58861 24.5011 3.58861C25.2358 3.58861 25.9525 3.35829 26.5522 2.9294L27.6962 2.11184C29.6172 0.737791 31.9128 -7.58783e-05 34.2664 5.85251e-09H35.6611C36.6319 5.85251e-09 37.8033 0.0552716 38.9541 0.469809C42.2426 1.64894 44.8429 4.35725 46.5567 8.73983C48.2522 13.0787 49.1228 19.1493 48.986 27.3249C48.9564 29.0522 48.7445 30.9867 48.0858 32.7277C47.4227 34.4941 46.2581 36.1592 44.3028 37.1034C43.0825 37.6954 41.7458 38.0016 40.3922 37.9993C38.8233 38.0199 37.2835 37.5712 35.9665 36.7096C34.8908 35.9957 33.9496 35.0745 33.1451 34.2869C33.0488 34.193 32.9523 34.0994 32.8557 34.0059C31.935 33.1077 31.1579 32.4099 30.2965 31.9562C29.2098 31.3874 28.0039 31.0904 26.7801 31.0903H22.2222C20.9975 31.0912 19.7908 31.3889 18.7035 31.9585C17.8421 32.4099 17.065 33.11 16.1443 34.0082L15.8549 34.2892C15.0504 35.0745 14.1092 35.998 13.0335 36.7119C11.7162 37.5727 10.1764 38.0206 8.60784 37.9993C7.25404 38.0009 5.91732 37.6939 4.69719 37.1011C2.73959 36.1569 1.57733 34.4941 0.914158 32.7277C0.255546 30.9867 0.0436048 29.0522 0.0139786 27.3249C-0.122757 19.1493 0.747796 13.0787 2.44332 8.73983C4.15708 4.35725 6.75963 1.64664 10.0481 0.469809ZM13.3412 3.45448C12.4661 3.45448 11.7756 3.51666 11.1922 3.72393C9.04996 4.49313 7.06956 6.31479 5.62472 10.0111C4.16392 13.7488 3.3002 19.3059 3.43466 27.2674C3.45973 28.7919 3.65116 30.2797 4.10923 31.4979C4.56045 32.6955 5.2259 33.5292 6.17394 33.9852C6.93348 34.356 7.76657 34.5474 8.61012 34.5448C9.71541 34.5448 10.5427 34.2316 11.1625 33.8217C11.9488 33.2989 12.6507 32.6172 13.4916 31.795L13.7742 31.5187C14.688 30.6297 15.7797 29.598 17.1311 28.8933C18.7047 28.0678 20.4515 27.6365 22.2245 27.6358H26.7801C28.5531 27.6358 30.2988 28.0665 31.8735 28.891C33.2226 29.598 34.3165 30.6297 35.2304 31.5164L35.513 31.7927C36.3562 32.6172 37.0558 33.2989 37.8443 33.8194C38.4619 34.2316 39.2892 34.5448 40.3967 34.5448C41.3242 34.5448 42.1333 34.3237 42.8306 33.9875C43.7787 33.5269 44.4441 32.6955 44.8953 31.5002C45.3534 30.2797 45.5448 28.7919 45.5699 27.2674C45.7021 19.3059 44.8406 13.7488 43.3798 10.0088C41.935 6.31479 39.9546 4.49313 37.8124 3.72393C37.229 3.51666 36.5362 3.45448 35.6634 3.45448H34.2687C32.6233 3.45448 31.0166 3.97035 29.672 4.93069L28.528 5.75056C27.3512 6.59218 25.9451 7.04416 24.5034 7.04416C23.0618 7.04416 21.6556 6.59218 20.4788 5.75056L19.3348 4.93069C17.9907 3.96982 16.3846 3.45404 14.7382 3.45448H13.3412ZM14.2459 11.5149C14.6992 11.5149 15.134 11.6969 15.4545 12.0208C15.7751 12.3447 15.9551 12.7841 15.9551 13.2422V14.9694H17.6643C18.1176 14.9694 18.5524 15.1514 18.8729 15.4753C19.1935 15.7992 19.3735 16.2386 19.3735 16.6966C19.3735 17.1547 19.1935 17.5941 18.8729 17.918C18.5524 18.2419 18.1176 18.4239 17.6643 18.4239H15.9551V20.1511C15.9551 20.6092 15.7751 21.0485 15.4545 21.3725C15.134 21.6964 14.6992 21.8784 14.2459 21.8784C13.7926 21.8784 13.3579 21.6964 13.0373 21.3725C12.7168 21.0485 12.5367 20.6092 12.5367 20.1511V18.4239H10.8275C10.3742 18.4239 9.93948 18.2419 9.61894 17.918C9.2984 17.5941 9.11833 17.1547 9.11833 16.6966C9.11833 16.2386 9.2984 15.7992 9.61894 15.4753C9.93948 15.1514 10.3742 14.9694 10.8275 14.9694H12.5367V13.2422C12.5367 12.7841 12.7168 12.3447 13.0373 12.0208C13.3579 11.6969 13.7926 11.5149 14.2459 11.5149Z" fill="#2C49AE"/>
<path d="M40.4537 16.1209C40.4537 16.579 40.2736 17.0183 39.9531 17.3422C39.6325 17.6662 39.1978 17.8481 38.7445 17.8481C38.2912 17.8481 37.8564 17.6662 37.5359 17.3422C37.2154 17.0183 37.0353 16.579 37.0353 16.1209C37.0353 15.6628 37.2154 15.2235 37.5359 14.8996C37.8564 14.5756 38.2912 14.3937 38.7445 14.3937C39.1978 14.3937 39.6325 14.5756 39.9531 14.8996C40.2736 15.2235 40.4537 15.6628 40.4537 16.1209ZM33.6169 16.1209C33.6169 16.579 33.4368 17.0183 33.1163 17.3422C32.7957 17.6662 32.361 17.8481 31.9077 17.8481C31.4544 17.8481 31.0196 17.6662 30.6991 17.3422C30.3786 17.0183 30.1985 16.579 30.1985 16.1209C30.1985 15.6628 30.3786 15.2235 30.6991 14.8996C31.0196 14.5756 31.4544 14.3937 31.9077 14.3937C32.361 14.3937 32.7957 14.5756 33.1163 14.8996C33.4368 15.2235 33.6169 15.6628 33.6169 16.1209ZM35.3261 10.9392C35.7794 10.9392 36.2141 11.1212 36.5347 11.4451C36.8552 11.769 37.0353 12.2083 37.0353 12.6664C37.0353 13.1245 36.8552 13.5638 36.5347 13.8878C36.2141 14.2117 35.7794 14.3937 35.3261 14.3937C34.8728 14.3937 34.438 14.2117 34.1175 13.8878C33.797 13.5638 33.6169 13.1245 33.6169 12.6664C33.6169 12.2083 33.797 11.769 34.1175 11.4451C34.438 11.1212 34.8728 10.9392 35.3261 10.9392ZM35.3261 17.8481C35.5505 17.8481 35.7728 17.8928 35.9802 17.9796C36.1875 18.0664 36.376 18.1937 36.5347 18.354C36.6934 18.5144 36.8193 18.7048 36.9052 18.9144C36.9911 19.124 37.0353 19.3486 37.0353 19.5754C37.0353 19.8022 36.9911 20.0268 36.9052 20.2364C36.8193 20.4459 36.6934 20.6363 36.5347 20.7967C36.376 20.9571 36.1875 21.0843 35.9802 21.1711C35.7728 21.2579 35.5505 21.3026 35.3261 21.3026C34.8728 21.3026 34.438 21.1206 34.1175 20.7967C33.797 20.4728 33.6169 20.0335 33.6169 19.5754C33.6169 19.1173 33.797 18.678 34.1175 18.354C34.438 18.0301 34.8728 17.8481 35.3261 17.8481Z" fill="#2C49AE"/>
</svg>
