<svg width="95" height="68" viewBox="0 0 95 68" fill="none" xmlns="http://www.w3.org/2000/svg">
<g filter="url(#filter0_d_426_77)">
<path d="M30.7586 59.9773C30.4204 59.9435 29.9639 59.842 29.3213 59.6729C27.3768 59.1487 25.7873 58.2356 24.3754 56.8153C23.8005 56.2488 22.9381 55.192 22.9381 55.0736C22.9381 55.0483 22.8282 54.8707 22.7014 54.6763C22.4224 54.2536 21.9236 53.2221 21.9236 53.053C21.9236 52.9854 21.8898 52.9177 21.856 52.8924C21.8221 52.867 21.7376 52.6556 21.67 52.4274L21.5516 51.9962H17.9838C15.7095 51.9962 14.2469 51.9624 13.9594 51.9032C13.0971 51.7257 12.3192 51.1169 11.9472 50.3222C11.6682 49.7473 11.6767 48.6567 11.9472 48.0733C12.184 47.5829 12.7166 46.9996 13.1309 46.7967C13.8241 46.4416 14.1285 46.4162 17.8908 46.4162C20.7146 46.4162 21.5093 46.3908 21.5347 46.3147C22.1772 43.9052 23.606 41.8254 25.6774 40.2782C26.1762 39.9062 27.6558 39.0946 28.2222 38.8832C29.7779 38.3168 31.511 38.0716 32.999 38.2153C34.5039 38.3675 35.5692 38.6634 36.8458 39.2806C37.835 39.7625 38.1901 39.9908 39.0356 40.6587C39.4329 40.9715 40.3714 41.9353 40.6504 42.3158C40.7941 42.5018 40.9547 42.7047 41.0055 42.7638C41.369 43.1443 42.206 44.8268 42.5019 45.7652L42.6964 46.3739L50.7366 46.3993L58.7684 46.4162L58.8699 46.1034C59.5885 43.7615 61.0681 41.6478 62.9619 40.2698C63.689 39.7371 65.2193 38.9509 66.014 38.7141C66.2 38.6634 66.4452 38.5873 66.5635 38.545C66.9863 38.4182 67.6373 38.3083 68.5081 38.2153C69.9538 38.0716 71.5855 38.2914 73.0735 38.824C76.2186 39.9569 78.7296 42.5525 79.778 45.7398L79.9893 46.3739L82.5341 46.3993L85.079 46.4162V39.4159V32.407L84.7661 31.9928C84.597 31.7645 84.4364 31.5616 84.411 31.5362C84.3857 31.5109 84.1151 31.1727 83.8108 30.7753C83.5149 30.378 83.2443 30.0398 83.219 30.0144C83.1936 29.989 82.9315 29.6509 82.6271 29.2535C82.3228 28.8561 82.0353 28.4757 81.9761 28.408C81.9254 28.3404 81.6971 28.0614 81.4858 27.7993L81.0969 27.309H70.3004C59.8168 27.309 59.4871 27.3005 59.0559 27.1483C58.8023 27.0553 58.5402 26.937 58.4641 26.8778C58.0414 26.5565 57.644 26.1169 57.4495 25.7449L57.2213 25.3221L57.179 15.4303L57.1367 5.53853L35.4931 5.49626C23.5891 5.4709 13.7734 5.42017 13.6804 5.38635C12.7758 5.0059 12.2939 4.57472 11.9557 3.84763C11.6682 3.2389 11.6767 2.25818 11.9642 1.60718C12.3192 0.82936 13.0041 0.262905 13.8072 0.0769057C13.9679 0.0346331 24.5191 0.000815458 37.2432 0.000815458C62.6491 0.000815458 60.7637 -0.0414575 61.4908 0.482724C62.0319 0.871632 62.2602 1.1929 62.5814 1.97072C62.6406 2.1229 62.6744 2.79927 62.6744 3.80536V5.40326L68.8293 5.42863L74.9758 5.45399L75.407 5.68226C75.965 5.97817 76.337 6.29099 76.5991 6.70526C76.7174 6.89126 78.6197 10.6366 80.8263 15.0414C83.0414 19.4378 84.9606 23.2085 85.1043 23.4199C85.248 23.6312 85.5947 24.0878 85.8737 24.4429C86.1611 24.798 86.6769 25.4659 87.0235 25.914C87.3701 26.3621 87.9028 27.0469 88.2071 27.4358C88.5115 27.8162 88.968 28.408 89.2217 28.7462C89.4753 29.076 89.7628 29.448 89.8642 29.5579C89.9572 29.6762 90.1432 29.9806 90.2869 30.2511L90.5321 30.733L90.5575 40.2613L90.5744 49.7896L90.3715 50.2461C90.1263 50.8126 89.6444 51.3621 89.1879 51.5904C88.4354 51.9793 88.2156 51.9962 83.9714 51.9962H79.9555L79.7611 52.5711C79.0001 54.82 77.4107 56.8745 75.3985 58.2187C74.1557 59.0473 73.1581 59.4616 71.3826 59.8758C70.7485 60.028 67.9332 60.028 67.3667 59.8758C66.4452 59.6306 66.2507 59.5799 65.7603 59.4108C62.9027 58.4639 60.1127 55.7669 59.1996 53.053C59.1404 52.867 59.0559 52.681 59.0221 52.6387C58.9883 52.588 58.9544 52.4781 58.9544 52.3767C58.9544 52.2752 58.9122 52.1568 58.853 52.0977C58.7008 51.9455 42.6457 51.9539 42.6034 52.1061C42.5357 52.3767 42.3667 52.9008 42.299 53.053C41.0308 56.0882 38.9003 58.1934 35.9158 59.3516C35.4593 59.5292 35.1888 59.6137 34.2672 59.8251C33.7261 59.9519 31.4688 60.0449 30.7586 59.9773ZM33.0159 54.4396C35.1549 53.9999 36.6514 52.6556 37.3108 50.5674C37.5645 49.7557 37.5476 48.4453 37.277 47.5829C37.0572 46.8981 36.7698 46.3147 36.3978 45.8328C35.4086 44.5139 33.7684 43.7108 32.1113 43.7108C31.1982 43.7192 30.2851 43.9475 29.5665 44.3448C27.9517 45.2326 27.0301 46.5853 26.7342 48.4622C26.4975 49.984 27.0893 51.7087 28.2645 52.9177C28.7464 53.4081 29.8117 54.1014 30.2936 54.2197C31.5956 54.5495 32.2212 54.6002 33.0159 54.4396ZM70.3004 54.4396C71.5432 54.1859 72.3295 53.7632 73.2003 52.8839C74.9082 51.1677 75.2632 48.775 74.1557 46.5853C73.9612 46.1964 73.175 45.148 73.082 45.148C73.0566 45.148 72.8791 45.0128 72.7015 44.8521C72.4056 44.5985 71.6278 44.1673 71.1712 44.0067C69.8016 43.5248 68.0938 43.66 66.851 44.3448C65.5236 45.0804 64.712 46.0696 64.1963 47.5829C64.0525 48.0141 64.0103 48.31 64.0187 49.1132C64.0187 49.6543 64.0525 50.1954 64.0948 50.3137C64.1455 50.4237 64.2301 50.6857 64.2893 50.8971C64.526 51.7087 65.3883 52.8839 66.1831 53.4757C66.5297 53.7294 67.3244 54.1521 67.5781 54.2197C68.8801 54.5495 69.5057 54.6002 70.3004 54.4396ZM77.9687 21.7121C77.9687 21.6529 76.7597 19.2095 75.2801 16.2758L72.6001 10.9494H67.6626H62.7167L62.6914 16.2758C62.6829 19.2095 62.6914 21.6529 62.7167 21.7121C62.7759 21.8642 77.9771 21.8642 77.9687 21.7121Z" fill="white"/>
<path d="M10.4255 38.0292C10.3071 37.9785 10.0873 37.8855 9.92666 37.8178C9.56311 37.6572 8.96284 37.0569 8.75148 36.6342C8.45557 36.0593 8.36257 35.4252 8.48093 34.9095C8.7092 33.9372 9.20802 33.3031 10.045 32.8889L10.4677 32.6775H17.485H24.5023L24.925 32.9058C25.297 33.1002 25.7366 33.4976 26.0579 33.9203C26.2608 34.1909 26.4891 34.9602 26.4891 35.3829C26.4891 36.0086 26.1255 36.8963 25.6859 37.3275C25.4661 37.5473 25.0011 37.8263 24.6037 37.97C24.1895 38.1222 23.8344 38.1307 17.4005 38.1222C12.8012 38.1222 10.5692 38.0884 10.4255 38.0292Z" fill="white"/>
<path d="M6.11363 27.3173C5.37809 27.1651 4.56645 26.531 4.28745 25.8885C4.21136 25.7109 4.11836 25.508 4.07609 25.4319C3.97464 25.2375 3.97464 24.0538 4.07609 23.8594C4.11836 23.7833 4.21982 23.5719 4.29591 23.3944C4.54954 22.8026 5.27663 22.2108 5.99527 21.9994C6.50254 21.8557 30.2429 21.8557 30.7501 21.9994C31.9338 22.346 32.737 23.4198 32.7454 24.6626C32.7454 25.1614 32.7116 25.2798 32.4411 25.9308C32.2804 26.2943 31.621 26.9199 31.1475 27.1567L30.7586 27.3511L18.5841 27.3596C11.8881 27.368 6.27427 27.3511 6.11363 27.3173Z" fill="white"/>
<path d="M10.2394 16.4872C9.26716 16.1152 8.72607 15.4642 8.48089 14.3482C8.22726 13.2491 8.91207 11.9725 10.0534 11.406L10.4677 11.2031H22.8113H35.1549L35.6369 11.4483C36.2287 11.7442 36.6345 12.1585 36.9389 12.7588C37.2432 13.3759 37.2601 14.3651 36.9811 15.0077C36.6852 15.6756 36.0089 16.2928 35.2818 16.5464C35.0535 16.6309 32.2719 16.6563 22.8113 16.6478C11.3639 16.6394 10.6114 16.6309 10.2394 16.4872Z" fill="white"/>
</g>
<defs>
<filter id="filter0_d_426_77" x="0" y="0" width="94.5744" height="68" filterUnits="userSpaceOnUse" color-interpolation-filters="sRGB">
<feFlood flood-opacity="0" result="BackgroundImageFix"/>
<feColorMatrix in="SourceAlpha" type="matrix" values="0 0 0 0 0 0 0 0 0 0 0 0 0 0 0 0 0 0 127 0" result="hardAlpha"/>
<feOffset dy="4"/>
<feGaussianBlur stdDeviation="2"/>
<feComposite in2="hardAlpha" operator="out"/>
<feColorMatrix type="matrix" values="0 0 0 0 0 0 0 0 0 0 0 0 0 0 0 0 0 0 0.25 0"/>
<feBlend mode="normal" in2="BackgroundImageFix" result="effect1_dropShadow_426_77"/>
<feBlend mode="normal" in="SourceGraphic" in2="effect1_dropShadow_426_77" result="shape"/>
</filter>
</defs>
</svg>
