<svg width="52" height="38" viewBox="0 0 52 38" fill="none" xmlns="http://www.w3.org/2000/svg">
<path d="M50.405 27.8049H48.0496V5.09756C48.0496 3.7456 47.5036 2.44902 46.5319 1.49304C45.5601 0.537063 44.2421 0 42.8678 0H8.95041C7.57611 0 6.25809 0.537063 5.28631 1.49304C4.31453 2.44902 3.76859 3.7456 3.76859 5.09756V27.8049H1.41322C1.03841 27.8049 0.678954 27.9513 0.413923 28.2121C0.148893 28.4728 0 28.8264 0 29.1951V32.9024C0 34.2544 0.54594 35.551 1.51772 36.507C2.4895 37.4629 3.80751 38 5.18182 38H46.6364C48.0107 38 49.3287 37.4629 50.3005 36.507C51.2722 35.551 51.8182 34.2544 51.8182 32.9024V29.1951C51.8182 28.8264 51.6693 28.4728 51.4043 28.2121C51.1392 27.9513 50.7798 27.8049 50.405 27.8049ZM6.59504 5.09756C6.59504 4.48304 6.8432 3.89368 7.28491 3.45914C7.72663 3.02461 8.32573 2.78049 8.95041 2.78049H42.8678C43.4925 2.78049 44.0916 3.02461 44.5333 3.45914C44.975 3.89368 45.2231 4.48304 45.2231 5.09756V27.8049H6.59504V5.09756ZM48.9917 32.9024C48.9917 33.517 48.7436 34.1063 48.3019 34.5409C47.8601 34.9754 47.261 35.2195 46.6364 35.2195H5.18182C4.55713 35.2195 3.95804 34.9754 3.51632 34.5409C3.0746 34.1063 2.82645 33.517 2.82645 32.9024V30.5854H48.9917V32.9024ZM31.0909 8.80488C31.0909 9.17359 30.942 9.52721 30.677 9.78793C30.412 10.0486 30.0525 10.1951 29.6777 10.1951H22.1405C21.7657 10.1951 21.4062 10.0486 21.1412 9.78793C20.8762 9.52721 20.7273 9.17359 20.7273 8.80488C20.7273 8.43616 20.8762 8.08255 21.1412 7.82183C21.4062 7.56111 21.7657 7.41463 22.1405 7.41463H29.6777C30.0525 7.41463 30.412 7.56111 30.677 7.82183C30.942 8.08255 31.0909 8.43616 31.0909 8.80488Z" fill="#2C49AE"/>
</svg>
