<svg width="90" height="90" viewBox="0 0 90 90" fill="none" xmlns="http://www.w3.org/2000/svg">
<path fill-rule="evenodd" clip-rule="evenodd" d="M13.1802 13.1802C21.6193 4.74106 33.0653 0 45 0C56.7832 0.22921 68.0064 5.071 76.2585 13.4852C84.5106 21.8994 89.1332 33.2146 89.1332 45C89.1332 56.7854 84.5106 68.1006 76.2585 76.5148C68.0064 84.929 56.7832 89.7708 45 90C33.0653 90 21.6193 85.2589 13.1802 76.8198C4.74106 68.3807 0 56.9347 0 45C0 33.0653 4.74106 21.6193 13.1802 13.1802ZM46.7877 7.33825C46.328 7.32123 45.4257 7.32122 45 7.32122V7.3042C35.0142 7.31772 25.4413 11.2912 18.381 18.353C11.3208 25.4149 7.34951 34.9886 7.33825 44.9745C7.32144 49.9203 8.28564 54.8205 10.175 59.3913C12.0644 63.9621 14.8415 68.1128 18.3456 71.6033C25.4966 78.7202 34.9461 82.6362 44.9915 82.6362C49.9416 82.6491 54.8452 81.6807 59.4188 79.787C63.9924 77.8932 68.1453 75.1117 71.6373 71.6033C75.143 68.1135 77.9216 63.9631 79.8125 59.3923C81.7034 54.8214 82.6689 49.9209 82.6532 44.9745V43.2633L81.1464 43.2719H55.769V46.7622H79.0778V47.273C78.479 55.9059 74.6305 63.9913 68.3072 69.9007C61.9839 75.8101 53.6557 79.1044 45 79.1203C40.5144 79.1315 36.071 78.2533 31.9269 76.5363C27.7829 74.8194 24.0203 72.2978 20.857 69.1175C14.4041 62.6816 10.8541 54.1005 10.8541 44.9745C10.8411 40.4885 11.7185 36.0446 13.4355 31.9003C15.1526 27.756 17.6751 23.9937 20.857 20.8314C24.0203 17.6511 27.7829 15.1296 31.9269 13.4126C36.071 11.6957 40.5144 10.8174 45 10.8286C45.596 10.8328 46.1919 10.8413 46.7877 10.8541V7.33825ZM34.4524 26.8075C33.4387 25.7937 32.0637 25.2242 30.63 25.2242C29.1963 25.2242 27.8213 25.7937 26.8075 26.8075C25.7937 27.8213 25.2242 29.1963 25.2242 30.63C25.2242 32.0637 25.7937 33.4387 26.8075 34.4524C27.8213 35.4662 29.1963 36.0358 30.63 36.0358C32.0637 36.0358 33.4387 35.4662 34.4524 34.4524C35.4662 33.4387 36.0358 32.0637 36.0358 30.63C36.0358 29.1963 35.4662 27.8213 34.4524 26.8075ZM46.7877 61.1663V25.2412H43.2123V64.6907H55.7435V61.1663H46.7877Z" fill="#E4002B"/>
</svg>
