<svg width="200" height="60" viewBox="0 0 200 60" fill="none" xmlns="http://www.w3.org/2000/svg">
<path fill-rule="evenodd" clip-rule="evenodd" d="M30.0277 37.9662C28.8746 37.639 28.5711 37.527 28.0509 37.2859C27.7302 37.1309 27.2186 36.8036 26.9065 36.5453C26.1696 35.9511 25.3026 34.7971 25.3026 34.4181C25.3026 34.3579 25.2246 34.1598 25.1292 33.9789C25.0338 33.8067 24.9558 33.5139 24.9558 33.3244C24.9558 33.1436 24.8865 32.6699 24.8084 32.2738C24.6264 31.3351 24.6264 29.7161 24.8084 28.7085C24.8865 28.2865 24.9558 27.8215 24.9558 27.6751C24.9558 27.3564 25.398 26.2713 25.7534 25.6943C26.1176 25.1087 26.6378 24.5834 27.2273 24.1787C27.4961 23.9978 27.7475 23.8428 27.7822 23.8428C27.8169 23.8428 27.9989 23.7653 28.1983 23.6792C28.9786 23.3175 29.8803 23.0763 30.4612 23.0677C30.7039 23.0677 31.2501 23.0075 31.6749 22.9386C32.6806 22.7749 33.3309 22.7749 34.2846 22.9472C34.7094 23.0247 35.507 23.0936 36.0532 23.1108C36.7641 23.1194 37.1456 23.1711 37.397 23.2744C37.5878 23.3519 37.9866 23.4467 38.29 23.4725L38.8276 23.5242L38.8102 25.3843L38.7842 27.2445L38.264 27.2186C37.9779 27.2014 37.4924 27.1153 37.1803 27.0292C36.8682 26.9431 36.1659 26.8225 35.6197 26.7708C35.0735 26.7192 34.3713 26.6417 34.0591 26.5986C33.4783 26.5125 32.1084 26.6072 31.5362 26.7708C31.3715 26.8225 31.1374 26.8569 30.9987 26.8569C30.7213 26.8569 29.9236 27.2875 29.6635 27.5631C29.5682 27.6751 29.4121 27.9076 29.3081 28.0884C29.126 28.3985 29.1173 28.519 29.1173 30.4825V32.5494L29.3514 32.9541C29.6895 33.557 29.8889 33.7378 30.5045 34.0306L31.068 34.3062H33.5823C35.7584 34.3062 36.1486 34.2804 36.4867 34.1512C36.7034 34.0737 37.1543 33.9703 37.4924 33.9273C37.8305 33.8842 38.2293 33.7895 38.3854 33.712C38.5328 33.6345 38.6975 33.5914 38.7409 33.6172C38.8796 33.7034 38.8536 37.4065 38.7235 37.5098C38.6628 37.5615 38.29 37.6218 37.8999 37.6476C37.5097 37.682 37.0416 37.7682 36.8595 37.8543C36.5647 37.9921 36.1833 38.0093 33.4089 38.0265C31.6923 38.0351 30.1751 38.0093 30.0277 37.9662ZM65.4433 38.0007C64.715 37.9318 63.1284 37.6821 62.9117 37.6046L62.6689 37.5184V30.5687V23.6103L62.877 23.4209C63.1458 23.1625 64.2469 23.0333 65.4433 23.1108C65.8941 23.1367 66.5444 23.128 66.8738 23.0764C67.2119 23.0333 68.3217 22.9472 69.3447 22.8869C70.7926 22.8094 71.3821 22.8094 71.989 22.8955L72.1116 22.9102L72.1117 22.9102L72.1117 22.9102L72.1119 22.9102C72.5368 22.9609 73.0972 23.0278 73.4282 23.0592C74.0091 23.1194 74.8587 23.3692 75.2402 23.5931C75.3096 23.6361 75.4656 23.7223 75.587 23.7739C76.4193 24.1787 77.1476 25.1691 77.1476 25.9097C77.1476 26.1508 77.2083 26.4608 77.2776 26.59C77.5117 27.055 77.529 27.4943 77.3296 28.2779C77.0869 29.1994 76.7661 29.6903 76.1505 30.0606C75.8904 30.2156 75.6737 30.3706 75.6737 30.3964C75.6737 30.4309 75.9858 30.6548 76.3673 30.8959C77.2169 31.4471 77.451 31.7399 77.7285 32.6011C77.9625 33.3331 77.9539 33.9101 77.7111 34.4957C77.6418 34.6593 77.5811 34.9607 77.5811 35.1502C77.5811 35.5636 77.1649 36.2353 76.5927 36.7348C76.2112 37.0706 76.1072 37.1309 75.4136 37.4323C75.3515 37.4591 75.2927 37.4847 75.2367 37.5091L75.2366 37.5091C74.9376 37.6391 74.7172 37.735 74.4891 37.8058C73.8507 38.004 73.1514 38.0064 70.495 38.0155L69.8216 38.0179C67.5847 38.0265 65.608 38.0179 65.4433 38.0007ZM73.4456 34.0995C73.6189 33.9962 73.8444 33.7895 73.9397 33.6517C74.1218 33.4106 74.1218 33.3934 73.9744 33.1436C73.853 32.9456 73.6883 32.8508 73.2115 32.6958C72.6219 32.5063 72.4745 32.4977 69.7782 32.4977H66.9605L66.9345 33.1867L66.9344 33.1895C66.9107 33.7778 66.9002 34.0386 67.0252 34.1612C67.1248 34.2589 67.3103 34.2689 67.6435 34.287L67.6801 34.289C68.0442 34.3062 69.4227 34.3148 70.7406 34.3062C73.0554 34.2976 73.1421 34.289 73.4456 34.0995ZM72.986 28.4932C73.3935 28.2865 73.5929 28.0196 73.5929 27.6923C73.5929 27.3737 73.3415 26.9517 73.1161 26.8914C71.6856 26.547 69.1366 26.5211 67.3073 26.8398L66.9605 26.9L66.9345 27.6665C66.9172 28.0885 66.9258 28.4846 66.9518 28.5535C66.9865 28.6396 67.5501 28.6655 69.8216 28.6655C72.4659 28.6655 72.6653 28.6569 72.986 28.4932ZM48.8064 37.5098C48.8585 37.5615 48.9798 37.6218 49.0839 37.639C49.1879 37.6562 50.0462 37.6562 50.9826 37.639L51.0038 37.6387C52.6476 37.6131 52.6996 37.6123 52.8032 37.4237C52.8813 37.2859 52.9246 36.5367 52.9593 34.8229C52.994 32.9714 53.0287 32.3599 53.124 32.1963C53.1934 32.0757 53.5142 31.5935 53.8436 31.1198C54.1731 30.6462 54.6152 30.0089 54.8233 29.6989C55.0314 29.3888 55.4215 28.8291 55.6903 28.4501C55.9591 28.0712 56.3925 27.4512 56.6526 27.0722C56.9041 26.6933 57.2942 26.1336 57.511 25.8235L57.5251 25.8033C58.3956 24.5572 58.4213 24.5204 58.4213 24.0064V23.9969V23.9968C58.4213 23.7548 58.4213 23.5948 58.3456 23.4891C58.198 23.283 57.7627 23.283 56.4792 23.283C55.5689 23.283 54.7279 23.3089 54.6066 23.3433C54.3118 23.4294 54.1644 23.6189 52.3958 26.4264C51.1906 28.3382 51.0259 28.5793 50.8438 28.631C50.7485 28.6654 50.6531 28.6482 50.6358 28.5965C50.6098 28.5104 50.5491 28.4071 48.8845 25.7805C47.558 23.6878 47.4886 23.5845 47.2459 23.4294C46.8817 23.1883 43.8039 23.1797 43.4225 23.4122C43.3271 23.4725 43.2924 23.6533 43.3011 24.0581C43.3098 24.5145 43.3531 24.6782 43.5178 24.9021C43.7606 25.2293 44.2981 26.0044 45.2952 27.4598C45.7026 28.054 46.2488 28.8463 46.5176 29.2252C46.7487 29.551 47.217 30.227 47.6358 30.8317L47.636 30.832L47.8354 31.1198L48.6677 32.3255L48.6937 34.866C48.7111 36.4161 48.7544 37.4409 48.8064 37.5098ZM83.1738 37.5959L82.957 37.5184L82.9744 30.5859L83.0004 23.6447L83.2431 23.4639C83.4859 23.283 83.5119 23.283 90.0403 23.283H90.0404C96.4126 23.283 96.586 23.283 96.7074 23.4467C96.8028 23.5759 96.8288 23.9634 96.8288 25.1518C96.8288 26.5728 96.8201 26.6933 96.6554 26.857C96.4906 27.0206 96.3693 27.0292 91.991 27.0292C91.5875 27.0292 91.2176 27.0287 90.8786 27.0282H90.8784H90.8783H90.8781H90.878C88.1164 27.0244 87.4006 27.0234 87.2386 27.3225C87.1819 27.4272 87.1929 27.5686 87.2079 27.7594C87.2133 27.8281 87.2192 27.9031 87.2226 27.9851L87.2486 28.6224L90.8986 28.6655C93.8377 28.6999 94.5746 28.7343 94.696 28.8291C94.8174 28.9324 94.8347 29.1477 94.8174 30.6806L94.7914 32.4116L91.02 32.4547L87.2486 32.4977L87.2226 33.0833C87.2052 33.445 87.2399 33.7206 87.3006 33.7981C87.3873 33.9015 88.1416 33.9187 91.965 33.9187C94.6786 33.9187 96.5773 33.9531 96.6554 34.0048C96.8374 34.1167 96.8981 37.2428 96.7247 37.4668C96.6207 37.6132 96.1699 37.6218 89.9969 37.639C86.3643 37.6562 83.2952 37.6304 83.1738 37.5959ZM144.703 35.4688C144.105 36.7261 144.01 37.3893 144.391 37.5787C144.573 37.6648 147.59 37.6734 147.963 37.5787C148.085 37.5529 148.154 37.4668 148.154 37.3548C148.154 37.2601 148.232 37.0362 148.319 36.8639C148.544 36.442 148.882 35.6583 148.986 35.3396L149.064 35.0813L152.558 35.0554C155.671 35.0382 156.044 35.0468 156.044 35.1674C156.044 35.2449 156.122 35.4516 156.208 35.6238C156.46 36.0889 156.807 36.8639 156.867 37.0706C156.893 37.1653 157.023 37.3376 157.153 37.4581C157.387 37.6648 157.387 37.6648 159.139 37.639L160.881 37.6132L160.942 37.1051C160.994 36.6831 160.968 36.5453 160.821 36.2697C160.725 36.0889 160.5 35.6324 160.326 35.2535C160.153 34.8746 159.832 34.1943 159.616 33.7464C159.407 33.2986 159.017 32.4805 158.757 31.938C158.506 31.3954 158.22 30.7926 158.124 30.6031C157.162 28.6052 156.598 27.4167 155.792 25.6944C155.549 25.1777 155.255 24.5662 155.133 24.3509C155.012 24.127 154.916 23.8859 154.916 23.817C154.916 23.7395 154.795 23.5931 154.648 23.4897C154.414 23.3261 154.24 23.3003 153.191 23.2572C151.579 23.2055 150.712 23.2831 150.486 23.5242C150.4 23.6189 150.148 24.0581 149.94 24.4801C149.385 25.6169 148.197 28.1229 147.686 29.2252C147.512 29.6041 147.33 29.9831 147.287 30.0692C147.148 30.3103 147.062 30.4912 146.828 30.9907C146.781 31.0896 146.709 31.2415 146.625 31.4194C146.489 31.7061 146.322 32.0603 146.177 32.3685C146.046 32.6479 145.877 33.0001 145.721 33.327C145.597 33.5846 145.481 33.8264 145.397 34.0048C145.302 34.2064 145.177 34.47 145.052 34.7338L145.051 34.7357C144.925 35.0009 144.799 35.2662 144.703 35.4688ZM153.98 30.517C154.076 30.7065 154.136 30.982 154.119 31.1198L154.093 31.3782L152.524 31.404C150.746 31.4299 150.703 31.4126 151.006 30.8356C151.102 30.6638 151.274 30.2862 151.404 30.0022L151.404 30.002L151.405 30.0012L151.405 30.0007L151.405 30.0003L151.513 29.7602C151.818 29.084 151.994 28.6934 152.142 28.4071C152.22 28.2435 152.316 28.0023 152.35 27.8732C152.376 27.7354 152.446 27.632 152.489 27.632C152.576 27.632 153.009 28.2263 153.009 28.3554C153.009 28.3985 153.113 28.6482 153.235 28.9152C153.365 29.1822 153.547 29.5697 153.642 29.785C153.702 29.9202 153.786 30.0995 153.861 30.2612C153.906 30.3569 153.948 30.4465 153.98 30.517ZM176.253 37.3636C176.123 37.2 175.958 36.9674 175.898 36.8469C175.837 36.7263 175.49 36.1838 175.135 35.6412L175.035 35.4894C174.706 34.9877 174.36 34.4587 174.242 34.2633C173.826 33.6002 173.609 33.3246 173.47 33.2816C173.236 33.2041 169.785 33.1868 169.681 33.2557C169.595 33.3074 169.569 33.8499 169.569 35.4776V37.6219L167.557 37.6047L165.537 37.5789L165.485 37.3205C165.398 36.9071 165.398 23.8774 165.485 23.6449C165.65 23.2229 166.066 23.1282 167.921 23.111C168.849 23.0938 170.08 23.0507 170.652 22.999C172.508 22.8354 174.172 22.7923 174.857 22.8957C175.213 22.9473 175.828 23.0249 176.227 23.0679C176.626 23.1024 176.99 23.1799 177.051 23.2229C177.111 23.266 177.311 23.3521 177.502 23.4124C178.455 23.7138 179.452 24.5922 179.886 25.5223L180.163 26.1251L180.172 28.0714C180.172 29.8627 180.163 30.0435 179.998 30.3535C179.903 30.543 179.782 30.8272 179.721 30.9994C179.617 31.3094 178.655 32.3429 178.325 32.4893C178.23 32.5323 178.152 32.6012 178.152 32.6443C178.152 32.8079 178.421 33.3418 178.811 33.9361C179.036 34.2805 179.357 34.78 179.522 35.0384C179.686 35.2967 179.972 35.7359 180.155 36.0115C180.449 36.4507 180.493 36.5713 180.493 37.0277C180.493 37.3636 180.458 37.553 180.389 37.5789C180.328 37.5961 179.426 37.6305 178.386 37.6392L176.496 37.665L176.253 37.3636ZM175.204 29.3632C175.325 29.3115 175.542 29.1737 175.681 29.0531C175.924 28.8551 175.941 28.8034 175.976 28.0972C176.002 27.3911 175.993 27.348 175.768 27.1155C175.403 26.7366 174.285 26.5643 172.681 26.6246C170.99 26.6935 169.846 26.8227 169.699 26.9432C169.525 27.0896 169.508 29.2168 169.681 29.3287C169.976 29.5182 174.753 29.5526 175.204 29.3632ZM101.771 23.576C101.649 23.8085 101.649 37.2258 101.771 37.4583C101.857 37.6133 101.97 37.6219 103.799 37.6219C105.499 37.6219 105.75 37.6047 105.854 37.4755C105.95 37.3722 105.984 36.8727 106.002 35.3484C106.019 34.1686 106.071 33.316 106.123 33.2557C106.192 33.1696 106.608 33.161 107.918 33.204C109.426 33.2471 109.643 33.2729 109.868 33.4279C109.998 33.5227 110.154 33.7035 110.215 33.8241C110.267 33.9447 110.449 34.2633 110.623 34.5217C110.711 34.6526 110.836 34.8478 110.969 35.0544L110.97 35.0545C111.099 35.2554 111.235 35.4671 111.351 35.6412C111.449 35.7946 111.578 35.9936 111.712 36.1999L111.712 36.2008L111.712 36.201C111.886 36.4692 112.068 36.7497 112.201 36.9588L112.643 37.6219L114.645 37.6047L116.639 37.5789L116.666 37.0966C116.692 36.5368 116.648 36.4076 116.085 35.5551C115.304 34.3753 114.342 32.8165 114.342 32.7218C114.342 32.6787 114.507 32.5237 114.715 32.3859C115.27 31.9984 115.746 31.4386 115.998 30.8616C116.466 29.8024 116.674 27.7786 116.397 27.0293C116.319 26.8141 116.249 26.4265 116.249 26.1682C116.249 25.7376 116.206 25.617 115.816 25.04C115.478 24.5233 115.252 24.2908 114.741 23.9463C114.385 23.6966 114.047 23.4985 113.978 23.4985C113.917 23.4985 113.692 23.4124 113.475 23.3176C113.258 23.2229 112.773 23.1023 112.391 23.0593C112.01 23.0162 111.429 22.9387 111.091 22.8871C110.441 22.7923 108.629 22.8354 106.843 22.999C106.27 23.0507 105.039 23.1023 104.112 23.111C102.317 23.1282 101.979 23.1885 101.771 23.576ZM112.14 27.391C112.391 28.1489 112.209 28.8723 111.663 29.2254C111.325 29.449 111.308 29.4493 109.441 29.475L109.435 29.4751C107.554 29.5096 106.591 29.4837 106.218 29.3976C106.019 29.3545 106.019 29.3287 106.019 28.1489C106.019 27.3135 106.054 26.9346 106.123 26.8916C106.435 26.7021 109.998 26.5299 110.692 26.6763L110.928 26.7256C111.676 26.8814 111.898 26.9277 112.005 27.0642C112.05 27.1219 112.074 27.1957 112.109 27.3007L112.109 27.3008C112.119 27.3286 112.129 27.3586 112.14 27.391ZM121.885 30.5601V23.4983L122.128 23.395C122.284 23.3261 122.925 23.283 124.009 23.283C125.422 23.283 125.699 23.3089 125.89 23.4295C126.012 23.507 126.341 23.9117 126.627 24.3337C126.869 24.6832 127.371 25.4144 127.825 26.0744L128.066 26.4264C128.569 27.1584 129.358 28.3124 129.818 28.9927C130.277 29.6644 130.685 30.2156 130.711 30.2156C130.745 30.207 130.988 29.8711 131.266 29.4577C131.534 29.0444 132.289 27.9334 132.939 26.9861L133.339 26.4039L133.343 26.3975C133.86 25.6442 134.343 24.9416 134.508 24.6954C134.707 24.3854 135.054 23.9375 135.262 23.705L135.652 23.283H137.464C138.886 23.283 139.32 23.3089 139.433 23.4036C139.563 23.507 139.571 24.0926 139.554 30.5514L139.528 37.5787H137.49H135.453L135.41 33.8842C135.384 31.3437 135.34 30.1811 135.271 30.1553C135.219 30.1381 134.959 30.4481 134.681 30.8356C134.413 31.2318 133.979 31.8432 133.719 32.1963C133.459 32.5494 133.017 33.1694 132.731 33.5742C131.968 34.6335 131.924 34.6851 131.604 34.7799C131.448 34.8229 130.945 34.8488 130.503 34.8401C129.74 34.8143 129.679 34.8057 129.428 34.5646C129.28 34.4182 128.942 33.9962 128.673 33.6173C128.413 33.2383 127.988 32.6355 127.728 32.2824C127.468 31.9293 127.017 31.2921 126.731 30.8787C126.445 30.4653 126.176 30.1467 126.133 30.1725C126.081 30.207 126.046 31.6107 126.046 33.7551C126.046 36.0286 126.012 37.3462 125.96 37.4581C125.873 37.6132 125.752 37.6218 123.879 37.6218H121.885V30.5601ZM190.176 32.2394C190.194 35.0813 190.22 37.4581 190.246 37.5184C190.272 37.5959 190.774 37.6218 192.326 37.6218H194.364V32.4116C194.364 27.3564 194.372 27.2014 194.528 27.1153C194.632 27.0636 195.621 27.0292 197.112 27.0292C198.881 27.0292 199.583 26.9947 199.739 26.9172L199.956 26.8053L199.982 25.2035L199.999 23.5931L199.765 23.438C199.548 23.2916 199.089 23.283 192.847 23.2572C189.179 23.24 185.919 23.2572 185.616 23.283C185.208 23.3261 185.009 23.395 184.862 23.5414C184.671 23.7308 184.671 23.7825 184.68 25.2035C184.697 26.4952 184.714 26.7019 184.853 26.8311C184.992 26.9689 185.26 26.9861 187.584 27.0292L190.159 27.0722L190.176 32.2394Z" fill="white"/>
<path fill-rule="evenodd" clip-rule="evenodd" d="M13.1937 23.8222C12.9484 23.175 12.9414 23.0079 12.9414 14.0922V5.3644L13.537 4.95376C13.8663 4.73104 14.3077 4.4596 14.525 4.34824C14.7352 4.24384 14.9524 4.10464 15.0014 4.04896C15.1065 3.91672 18.1054 2.39945 18.2526 2.39945C18.3086 2.39945 18.624 2.28113 18.9463 2.13497C19.4858 1.89137 21.4687 1.22322 22.3656 0.979616C23.3536 0.715137 24.3065 0.506338 24.6709 0.471539C24.8881 0.450659 25.1894 0.394979 25.3435 0.339299C25.4977 0.290579 26.0652 0.214019 26.6047 0.17226C27.1443 0.1305 27.8239 0.0748197 28.1112 0.0469798C28.7979 -0.0156599 31.2082 -0.0156599 31.965 0.0469798C32.2943 0.0748197 32.9319 0.12354 33.3804 0.14442C34.025 0.186179 34.2282 0.220979 34.3123 0.311459C34.4034 0.415859 34.4174 1.15362 34.4034 6.6172L34.3823 12.8046L30.8089 12.8464C27.4386 12.8812 27.2003 12.8951 26.6398 13.0343C26.3105 13.1178 25.9671 13.1804 25.869 13.1735C25.7709 13.1665 25.6448 13.1874 25.5888 13.2222C25.4486 13.3127 24.8951 13.4588 24.6779 13.4658C24.5798 13.4658 24.3766 13.5284 24.2224 13.605C24.0683 13.6816 23.8931 13.7442 23.823 13.7442C23.753 13.7442 23.4587 13.8556 23.1784 13.9878C22.8911 14.12 22.5968 14.2314 22.5268 14.2314C22.4497 14.2314 22.3166 14.308 22.2255 14.4054C22.1344 14.5028 22.0153 14.5655 21.9662 14.5516C21.8611 14.5098 21.0974 14.8717 20.9642 15.0318C20.9152 15.0944 20.6349 15.2545 20.3406 15.3937C20.0043 15.5538 19.654 15.7904 19.3737 16.048C19.1355 16.2776 18.9112 16.4586 18.8692 16.4586C18.708 16.4586 17.9443 17.1128 17.0614 18.0107C16.5499 18.5327 16.1295 18.992 16.1295 19.0338C16.1295 19.0755 16.0104 19.2356 15.8633 19.4027C15.3868 19.9177 14.595 21.1635 13.9854 22.3607C13.6631 22.994 13.3969 23.5786 13.3969 23.6622C13.3969 23.7387 13.3688 23.8501 13.3268 23.9058C13.2777 23.9823 13.2497 23.9684 13.1937 23.8222ZM3.65757 44.2567C3.69261 44.3611 3.79771 44.4725 3.88179 44.5073C3.97989 44.5421 7.35018 44.563 12.1499 44.556C20.6281 44.5421 20.8243 44.5351 20.1657 44.2637C20.0256 44.201 19.7733 44.034 19.6122 43.8878C19.451 43.7417 19.1147 43.4911 18.8624 43.3241C18.6102 43.157 18.2668 42.8856 18.0917 42.7186C17.9165 42.5515 17.5451 42.2035 17.2579 41.946C16.9776 41.6885 16.4801 41.1317 16.1648 40.7071C15.8425 40.2895 15.5272 39.8998 15.4641 39.8441C15.401 39.7954 15.3029 39.6353 15.2469 39.5031C15.1908 39.3639 15.0507 39.162 14.9386 39.0437C14.8335 38.9323 14.6933 38.7235 14.6303 38.5913C14.5742 38.4591 14.4761 38.2711 14.4201 38.1737C14.1608 37.7352 13.327 35.9535 13.327 35.8421C13.327 35.7725 13.2289 35.515 13.1098 35.2644C12.9977 35.0139 12.8786 34.652 12.8646 34.4571C12.8435 34.2622 12.7665 33.9629 12.6964 33.7889C12.6333 33.6149 12.5563 33.26 12.5282 32.9955C12.5002 32.738 12.4301 32.3134 12.3671 32.0559C12.2199 31.4573 12.2059 28.1374 12.339 27.6433C12.4512 27.2674 12.3951 27.0586 11.9817 26.2443C11.6594 25.611 11.3371 24.6574 11.26 24.1146C11.232 23.9058 11.1619 23.6134 11.1129 23.4603C11.0288 23.2376 11.0148 21.8038 11.0148 15.2128C11.0148 9.43598 10.9937 7.20878 10.9377 7.1531C10.8256 7.04175 10.5733 7.20878 9.6274 8.04398C8.6044 8.95574 8.37318 9.18542 7.72154 9.94405C7.57135 10.1187 7.3886 10.3295 7.21934 10.5248L7.21912 10.525L7.21765 10.5267C7.06381 10.7042 6.92127 10.8686 6.82466 10.9811C6.4533 11.4126 5.72459 12.387 4.82771 13.6607C4.56846 14.0296 4.07098 14.8856 3.72764 15.5538C3.52862 15.9334 3.33185 16.3107 3.18617 16.5901L3.18609 16.5902C3.07536 16.8026 2.99415 16.9583 2.96389 17.0154C2.71865 17.4399 2.18614 18.6579 2.18614 18.7763C2.18614 18.8389 2.06702 19.1521 1.91287 19.4653C1.65361 20.0221 1.46443 20.565 1.24722 21.435C1.19116 21.6646 1.07205 22.0753 0.994972 22.3398C0.693677 23.3002 0.455445 24.4278 0.364356 25.2282C0.329322 25.5553 0.26626 25.9172 0.217212 26.0285C0.13313 26.2373 0 28.736 0 30.1001C0 31.1372 0.119116 33.8168 0.168164 33.9003C0.196191 33.9351 0.26626 34.2344 0.322315 34.5545C0.623609 36.2179 1.023 37.944 1.17014 38.2433C1.21919 38.3407 1.28225 38.5565 1.31028 38.7305C1.33831 38.9045 1.38735 39.0785 1.41538 39.1133C1.45042 39.1551 1.52049 39.3569 1.57654 39.5657C1.77273 40.2687 1.91987 40.6375 2.48042 41.8068C2.78172 42.4402 3.02696 43.0039 3.02696 43.0457C3.02696 43.0944 3.09002 43.2058 3.16709 43.3032C3.24417 43.4006 3.30723 43.5259 3.30723 43.5816C3.30723 43.6373 3.37029 43.7695 3.44737 43.8809C3.52444 43.9853 3.61553 44.1523 3.65757 44.2567ZM29.604 54.8011C29.1906 54.7663 28.8612 54.6967 28.6791 54.5993C28.5249 54.5227 28.3637 54.4601 28.3287 54.4601C28.1395 54.4601 27.4458 53.9241 26.9834 53.423C26.605 53.0124 26.4369 52.7618 26.3107 52.4277C26.0165 51.6621 25.8693 50.9244 25.8693 50.2075C25.8693 49.8386 25.8413 49.3723 25.7992 49.1705C25.7082 48.6902 24.9304 47.1312 24.5941 46.7414C24.4469 46.5744 24.3488 46.4074 24.3769 46.3656C24.4469 46.2542 25.3999 46.3656 25.6731 46.5187C25.8413 46.6162 26.0515 46.651 26.4509 46.6579C26.8363 46.6649 27.0955 46.7066 27.3197 46.8041C27.635 46.9433 27.7752 46.9433 41.2844 46.9433C48.7817 46.9433 54.9407 46.9642 54.9687 46.985C54.9897 47.0059 54.8496 47.2495 54.6464 47.521L54.6156 47.5647C54.4218 47.8396 54.1628 48.2072 54.0298 48.4118C53.8827 48.6276 53.4272 49.1635 53.0138 49.595C52.6074 50.0335 52.152 50.5486 52.0048 50.7365C51.7316 51.0984 51.4583 51.3698 51.171 51.5577C51.0799 51.6204 50.6035 52.038 50.12 52.4973C49.6365 52.9497 49.097 53.4091 48.9218 53.5205C48.7467 53.6249 48.4173 53.8685 48.1861 54.0564C47.9549 54.2443 47.5905 54.5088 47.3803 54.641L47.0019 54.8777L38.6218 54.8707C34.0183 54.8637 29.9613 54.8359 29.604 54.8011ZM28.637 59.9584C28.4829 59.9236 28.0204 59.8958 27.607 59.8958C27.1586 59.8888 26.577 59.8331 26.1496 59.7496C25.7572 59.6731 25.3228 59.6104 25.1826 59.6104C24.9094 59.6104 23.9775 59.4016 22.2257 58.9562C21.2027 58.6917 19.7313 58.1976 19.0026 57.8635C18.6733 57.7173 18.358 57.592 18.3019 57.592C18.1408 57.592 15.2329 56.1374 14.9877 55.9286C14.8616 55.8242 14.6794 55.7059 14.5743 55.6641C14.3991 55.5876 13.8806 55.2535 12.7315 54.4809C12.4932 54.3278 12.262 54.1469 12.213 54.0912C12.1639 54.0285 11.9607 53.8824 11.7645 53.7571C11.5613 53.6318 11.197 53.3395 10.9447 53.1098C10.6925 52.8732 10.174 52.4277 9.7886 52.1145C8.98281 51.4603 8.42927 50.9105 7.75661 50.0753C7.49736 49.7481 7.09096 49.2818 6.85974 49.0313C6.27116 48.384 5.51442 47.3887 5.2832 46.9572L5.27326 46.9375C5.10081 46.595 5.09648 46.5864 5.22714 46.4839C5.34626 46.4004 6.4113 46.3865 12.6404 46.3865C16.8865 46.3865 20.0466 46.4143 20.2148 46.4491C20.3759 46.4839 20.7123 46.5535 20.9645 46.6022C21.8964 46.7762 22.5761 47.2495 23.2487 48.1682C23.7883 48.9199 23.9494 49.4976 24.0405 51.0497C24.1106 52.2329 24.2367 52.6574 24.7692 53.5901C25.1966 54.3348 25.6311 54.9194 25.9674 55.1978C26.3668 55.5319 26.8012 55.8312 27.0955 55.9773C27.1493 56.004 27.2235 56.0401 27.3072 56.0807C27.4635 56.1565 27.6526 56.2483 27.8032 56.3253C28.6369 56.7359 28.651 56.736 38.3026 56.7708H38.3027H38.3028H38.3028L38.3064 56.7708C40.927 56.7847 43.1271 56.8195 43.1972 56.8543C43.3794 56.9378 43.3444 57.0979 43.1271 57.1396C43.015 57.1675 42.5035 57.3832 41.985 57.6338C41.4665 57.8774 40.9831 58.0792 40.913 58.0792C40.8429 58.0792 40.6677 58.1419 40.5136 58.2184C40.3594 58.295 40.1913 58.3576 40.1282 58.3576C40.0722 58.3576 39.8409 58.4203 39.6237 58.4899C39.3995 58.5664 39.0352 58.6639 38.8109 58.7056C38.5867 58.7474 38.3205 58.8309 38.2154 58.8866C38.1103 58.9423 37.9631 58.984 37.886 58.984C37.809 58.984 37.6268 59.0467 37.4796 59.1232C37.3325 59.1998 37.0172 59.2833 36.779 59.3112C36.5407 59.332 36.2815 59.3947 36.2044 59.4434C36.1273 59.4921 35.812 59.5478 35.5037 59.5756C35.1954 59.6035 34.782 59.6661 34.5858 59.7218C33.9482 59.9027 29.2466 60.0837 28.637 59.9584ZM36.2737 12.2687C36.3158 12.6306 36.3508 12.7211 36.4699 12.7698C36.6661 12.8464 54.5966 12.8603 54.7227 12.7837C54.8979 12.6654 54.6667 12.2757 53.6997 11.0716C52.5646 9.65871 50.89 7.95351 50.0071 7.30624C49.853 7.19488 49.5377 6.92344 49.3065 6.70768C49.0752 6.49192 48.7459 6.22744 48.5707 6.12304C48.3956 6.01864 48.1293 5.80984 47.9752 5.66368C47.821 5.51752 47.5547 5.33656 47.3796 5.26696C47.2044 5.1904 47.0012 5.06512 46.9241 4.97464C46.8471 4.89113 46.6649 4.75889 46.5177 4.68929C46.3776 4.61273 46.0343 4.41089 45.761 4.23689C45.1164 3.81929 42.1315 2.32985 41.9493 2.32985C41.8722 2.32985 41.6059 2.23241 41.3607 2.1141C40.9193 1.89834 39.9663 1.5573 39.4338 1.4181C39.2867 1.3833 39.0835 1.30674 38.9784 1.25802C38.8803 1.2093 38.593 1.12578 38.3407 1.07706C38.0885 1.0353 37.7872 0.95178 37.6681 0.8961C37.3808 0.77082 36.512 0.701221 36.3788 0.7917C36.2877 0.85434 36.2737 1.56426 36.2527 6.34576C36.2387 9.35943 36.2527 12.0251 36.2737 12.2687Z" fill="white"/>
</svg>
