<svg width="55" height="60" viewBox="0 0 55 60" fill="none" xmlns="http://www.w3.org/2000/svg">
<path fill-rule="evenodd" clip-rule="evenodd" d="M13.1937 23.8222C12.9484 23.175 12.9414 23.0079 12.9414 14.0922V5.3644L13.537 4.95376C13.8663 4.73104 14.3077 4.4596 14.525 4.34824C14.7352 4.24384 14.9524 4.10464 15.0014 4.04896C15.1065 3.91672 18.1054 2.39945 18.2526 2.39945C18.3086 2.39945 18.624 2.28113 18.9463 2.13497C19.4858 1.89137 21.4687 1.22322 22.3656 0.979616C23.3536 0.715137 24.3065 0.506338 24.6709 0.471539C24.8881 0.450659 25.1894 0.394979 25.3435 0.339299C25.4977 0.290579 26.0652 0.214019 26.6047 0.17226C27.1443 0.1305 27.8239 0.0748197 28.1112 0.0469798C28.7979 -0.0156599 31.2082 -0.0156599 31.965 0.0469798C32.2943 0.0748197 32.9319 0.12354 33.3804 0.14442C34.025 0.186179 34.2282 0.220979 34.3123 0.311459C34.4034 0.415859 34.4174 1.15362 34.4034 6.6172L34.3823 12.8046L30.8089 12.8464C27.4386 12.8812 27.2003 12.8951 26.6398 13.0343C26.3105 13.1178 25.9671 13.1804 25.869 13.1735C25.7709 13.1665 25.6448 13.1874 25.5888 13.2222C25.4486 13.3127 24.8951 13.4588 24.6779 13.4658C24.5798 13.4658 24.3766 13.5284 24.2224 13.605C24.0683 13.6816 23.8931 13.7442 23.823 13.7442C23.753 13.7442 23.4587 13.8556 23.1784 13.9878C22.8911 14.12 22.5968 14.2314 22.5268 14.2314C22.4497 14.2314 22.3166 14.308 22.2255 14.4054C22.1344 14.5028 22.0153 14.5655 21.9662 14.5516C21.8611 14.5098 21.0974 14.8717 20.9642 15.0318C20.9152 15.0944 20.6349 15.2545 20.3406 15.3937C20.0043 15.5538 19.654 15.7904 19.3737 16.048C19.1355 16.2776 18.9112 16.4586 18.8692 16.4586C18.708 16.4586 17.9443 17.1128 17.0614 18.0107C16.5499 18.5327 16.1295 18.992 16.1295 19.0338C16.1295 19.0755 16.0104 19.2356 15.8633 19.4027C15.3868 19.9177 14.595 21.1635 13.9854 22.3607C13.6631 22.994 13.3969 23.5786 13.3969 23.6622C13.3969 23.7387 13.3688 23.8501 13.3268 23.9058C13.2777 23.9823 13.2497 23.9684 13.1937 23.8222ZM3.65757 44.2567C3.69261 44.3611 3.79771 44.4725 3.88179 44.5073C3.97989 44.5421 7.35018 44.563 12.1499 44.556C20.6281 44.5421 20.8243 44.5351 20.1657 44.2637C20.0256 44.201 19.7733 44.034 19.6122 43.8878C19.451 43.7417 19.1147 43.4911 18.8624 43.3241C18.6102 43.157 18.2668 42.8856 18.0917 42.7186C17.9165 42.5515 17.5451 42.2035 17.2579 41.946C16.9776 41.6885 16.4801 41.1317 16.1648 40.7071C15.8425 40.2895 15.5272 39.8998 15.4641 39.8441C15.401 39.7954 15.3029 39.6353 15.2469 39.5031C15.1908 39.3639 15.0507 39.162 14.9386 39.0437C14.8335 38.9323 14.6933 38.7235 14.6303 38.5913C14.5742 38.4591 14.4761 38.2711 14.4201 38.1737C14.1608 37.7352 13.327 35.9535 13.327 35.8421C13.327 35.7725 13.2289 35.515 13.1098 35.2644C12.9977 35.0139 12.8786 34.652 12.8646 34.4571C12.8435 34.2622 12.7665 33.9629 12.6964 33.7889C12.6333 33.6149 12.5563 33.26 12.5282 32.9955C12.5002 32.738 12.4301 32.3134 12.3671 32.0559C12.2199 31.4573 12.2059 28.1374 12.339 27.6433C12.4512 27.2674 12.3951 27.0586 11.9817 26.2443C11.6594 25.611 11.3371 24.6574 11.26 24.1146C11.232 23.9058 11.1619 23.6134 11.1129 23.4603C11.0288 23.2376 11.0148 21.8038 11.0148 15.2128C11.0148 9.43598 10.9937 7.20878 10.9377 7.1531C10.8256 7.04175 10.5733 7.20878 9.6274 8.04398C8.6044 8.95574 8.37318 9.18542 7.72154 9.94405C7.57135 10.1187 7.3886 10.3295 7.21934 10.5248L7.21912 10.525L7.21765 10.5267C7.06381 10.7042 6.92127 10.8686 6.82466 10.9811C6.4533 11.4126 5.72459 12.387 4.82771 13.6607C4.56846 14.0296 4.07098 14.8856 3.72764 15.5538C3.52862 15.9334 3.33185 16.3107 3.18617 16.5901L3.18609 16.5902C3.07536 16.8026 2.99415 16.9583 2.96389 17.0154C2.71865 17.4399 2.18614 18.6579 2.18614 18.7763C2.18614 18.8389 2.06702 19.1521 1.91287 19.4653C1.65361 20.0221 1.46443 20.565 1.24722 21.435C1.19116 21.6646 1.07205 22.0753 0.994972 22.3398C0.693677 23.3002 0.455445 24.4278 0.364356 25.2282C0.329322 25.5553 0.26626 25.9172 0.217212 26.0285C0.13313 26.2373 0 28.736 0 30.1001C0 31.1372 0.119116 33.8168 0.168164 33.9003C0.196191 33.9351 0.26626 34.2344 0.322315 34.5545C0.623609 36.2179 1.023 37.944 1.17014 38.2433C1.21919 38.3407 1.28225 38.5565 1.31028 38.7305C1.33831 38.9045 1.38735 39.0785 1.41538 39.1133C1.45042 39.1551 1.52049 39.3569 1.57654 39.5657C1.77273 40.2687 1.91987 40.6375 2.48042 41.8068C2.78172 42.4402 3.02696 43.0039 3.02696 43.0457C3.02696 43.0944 3.09002 43.2058 3.16709 43.3032C3.24417 43.4006 3.30723 43.5259 3.30723 43.5816C3.30723 43.6373 3.37029 43.7695 3.44737 43.8809C3.52444 43.9853 3.61553 44.1523 3.65757 44.2567ZM29.604 54.8011C29.1906 54.7663 28.8612 54.6967 28.6791 54.5993C28.5249 54.5227 28.3637 54.4601 28.3287 54.4601C28.1395 54.4601 27.4458 53.9241 26.9834 53.423C26.605 53.0124 26.4369 52.7618 26.3107 52.4277C26.0165 51.6621 25.8693 50.9244 25.8693 50.2075C25.8693 49.8386 25.8413 49.3723 25.7992 49.1705C25.7082 48.6902 24.9304 47.1312 24.5941 46.7414C24.4469 46.5744 24.3488 46.4074 24.3769 46.3656C24.4469 46.2542 25.3999 46.3656 25.6731 46.5187C25.8413 46.6162 26.0515 46.651 26.4509 46.6579C26.8363 46.6649 27.0955 46.7066 27.3197 46.8041C27.635 46.9433 27.7752 46.9433 41.2844 46.9433C48.7817 46.9433 54.9407 46.9642 54.9687 46.985C54.9897 47.0059 54.8496 47.2495 54.6464 47.521L54.6156 47.5647C54.4218 47.8396 54.1628 48.2072 54.0298 48.4118C53.8827 48.6276 53.4272 49.1635 53.0138 49.595C52.6074 50.0335 52.152 50.5486 52.0048 50.7365C51.7316 51.0984 51.4583 51.3698 51.171 51.5577C51.0799 51.6204 50.6035 52.038 50.12 52.4973C49.6365 52.9497 49.097 53.4091 48.9218 53.5205C48.7467 53.6249 48.4173 53.8685 48.1861 54.0564C47.9549 54.2443 47.5905 54.5088 47.3803 54.641L47.0019 54.8777L38.6218 54.8707C34.0183 54.8637 29.9613 54.8359 29.604 54.8011ZM28.637 59.9584C28.4829 59.9236 28.0204 59.8958 27.607 59.8958C27.1586 59.8888 26.577 59.8331 26.1496 59.7496C25.7572 59.6731 25.3228 59.6104 25.1826 59.6104C24.9094 59.6104 23.9775 59.4016 22.2257 58.9562C21.2027 58.6917 19.7313 58.1976 19.0026 57.8635C18.6733 57.7173 18.358 57.592 18.3019 57.592C18.1408 57.592 15.2329 56.1374 14.9877 55.9286C14.8616 55.8242 14.6794 55.7059 14.5743 55.6641C14.3991 55.5876 13.8806 55.2535 12.7315 54.4809C12.4932 54.3278 12.262 54.1469 12.213 54.0912C12.1639 54.0285 11.9607 53.8824 11.7645 53.7571C11.5613 53.6318 11.197 53.3395 10.9447 53.1098C10.6925 52.8732 10.174 52.4277 9.7886 52.1145C8.98281 51.4603 8.42927 50.9105 7.75661 50.0753C7.49736 49.7481 7.09096 49.2818 6.85974 49.0313C6.27116 48.384 5.51442 47.3887 5.2832 46.9572L5.27326 46.9375C5.10081 46.595 5.09648 46.5864 5.22714 46.4839C5.34626 46.4004 6.4113 46.3865 12.6404 46.3865C16.8865 46.3865 20.0466 46.4143 20.2148 46.4491C20.3759 46.4839 20.7123 46.5535 20.9645 46.6022C21.8964 46.7762 22.5761 47.2495 23.2487 48.1682C23.7883 48.9199 23.9494 49.4976 24.0405 51.0497C24.1106 52.2329 24.2367 52.6574 24.7692 53.5901C25.1966 54.3348 25.6311 54.9194 25.9674 55.1978C26.3668 55.5319 26.8012 55.8312 27.0955 55.9773C27.1493 56.004 27.2235 56.0401 27.3072 56.0807C27.4635 56.1565 27.6526 56.2483 27.8032 56.3253C28.6369 56.7359 28.651 56.736 38.3026 56.7708H38.3027H38.3028H38.3028L38.3064 56.7708C40.927 56.7847 43.1271 56.8195 43.1972 56.8543C43.3794 56.9378 43.3444 57.0979 43.1271 57.1396C43.015 57.1675 42.5035 57.3832 41.985 57.6338C41.4665 57.8774 40.9831 58.0792 40.913 58.0792C40.8429 58.0792 40.6677 58.1419 40.5136 58.2184C40.3594 58.295 40.1913 58.3576 40.1282 58.3576C40.0722 58.3576 39.8409 58.4203 39.6237 58.4899C39.3995 58.5664 39.0352 58.6639 38.8109 58.7056C38.5867 58.7474 38.3205 58.8309 38.2154 58.8866C38.1103 58.9423 37.9631 58.984 37.886 58.984C37.809 58.984 37.6268 59.0467 37.4796 59.1232C37.3325 59.1998 37.0172 59.2833 36.779 59.3112C36.5407 59.332 36.2815 59.3947 36.2044 59.4434C36.1273 59.4921 35.812 59.5478 35.5037 59.5756C35.1954 59.6035 34.782 59.6661 34.5858 59.7218C33.9482 59.9027 29.2466 60.0837 28.637 59.9584ZM36.2737 12.2687C36.3158 12.6306 36.3508 12.7211 36.4699 12.7698C36.6661 12.8464 54.5966 12.8603 54.7227 12.7837C54.8979 12.6654 54.6667 12.2757 53.6997 11.0716C52.5646 9.65871 50.89 7.95351 50.0071 7.30624C49.853 7.19488 49.5377 6.92344 49.3065 6.70768C49.0752 6.49192 48.7459 6.22744 48.5707 6.12304C48.3956 6.01864 48.1293 5.80984 47.9752 5.66368C47.821 5.51752 47.5547 5.33656 47.3796 5.26696C47.2044 5.1904 47.0012 5.06512 46.9241 4.97464C46.8471 4.89113 46.6649 4.75889 46.5177 4.68929C46.3776 4.61273 46.0343 4.41089 45.761 4.23689C45.1164 3.81929 42.1315 2.32985 41.9493 2.32985C41.8722 2.32985 41.6059 2.23241 41.3607 2.1141C40.9193 1.89834 39.9663 1.5573 39.4338 1.4181C39.2867 1.3833 39.0835 1.30674 38.9784 1.25802C38.8803 1.2093 38.593 1.12578 38.3407 1.07706C38.0885 1.0353 37.7872 0.95178 37.6681 0.8961C37.3808 0.770821 36.512 0.701221 36.3788 0.7917C36.2877 0.85434 36.2737 1.56426 36.2527 6.34576C36.2387 9.35943 36.2527 12.0251 36.2737 12.2687Z" fill="white"/>
</svg>
