<svg width="22" height="38" viewBox="0 0 22 38" fill="none" xmlns="http://www.w3.org/2000/svg">
<path d="M18.3352 0H3.66483C1.64062 0 0 1.59481 0 3.5625V34.4375C0 36.4052 1.64062 38 3.66483 38H18.3352C20.3594 38 22 36.4052 22 34.4375V3.5625C22 1.59481 20.3594 0 18.3352 0ZM19.5568 34.4375C19.5568 35.093 19.0095 35.625 18.3352 35.625H3.66483C2.9905 35.625 2.44322 35.093 2.44322 34.4375V3.5625C2.44322 2.907 2.9905 2.375 3.66483 2.375H18.3352C19.0095 2.375 19.5568 2.907 19.5568 3.5625V34.4375ZM11.0018 29.694C9.655 29.694 8.56472 30.7551 8.56472 32.0625C8.56472 33.3699 9.65561 34.4316 11.0018 34.4316C12.3487 34.4316 13.4389 33.37 13.4389 32.0625C13.4389 30.7551 12.3487 29.694 11.0018 29.694ZM13.4451 3.5625H8.55861C7.88428 3.5625 7.337 4.0945 7.337 4.75C7.337 5.4055 7.88428 5.9375 8.55861 5.9375H13.4451C14.1194 5.9375 14.6667 5.4055 14.6667 4.75C14.6667 4.0945 14.1194 3.5625 13.4451 3.5625Z" fill="#2C49AE"/>
</svg>
