<svg width="91" height="70" viewBox="0 0 91 70" fill="none" xmlns="http://www.w3.org/2000/svg">
<path d="M89.7852 53.5747C88.0146 55.8106 83.6787 57.4041 83.6787 57.4041L51.4293 69.0035V60.4471L75.1634 51.9771C77.8564 51.0135 78.2681 49.6465 76.0817 48.93C73.8952 48.2094 69.9381 48.4153 67.2411 49.3871L51.4293 54.9624V46.0888L52.3393 45.7759C52.3393 45.7759 56.9099 44.1576 63.3334 43.4453C69.7611 42.7371 77.6299 43.5441 83.8064 45.8871C90.7652 48.09 91.5475 51.3388 89.7852 53.5747ZM54.497 39.0106V17.1376C54.497 14.5682 54.0234 12.2047 51.6146 11.5376C49.774 10.9447 48.6293 12.6576 48.6293 15.2229V70L33.8758 65.31V0C40.147 1.16529 49.2881 3.92412 54.2005 5.57941C66.6975 9.87412 70.9346 15.2229 70.9346 27.2671C70.9346 39.0065 63.6958 43.4576 54.497 39.0106ZM6.80226 59.5576C-0.34598 57.54 -1.53598 53.34 1.72108 50.9229C4.73108 48.6912 9.85343 47.0112 9.85343 47.0112L31.0099 39.4759V48.0653L15.7828 53.5212C13.094 54.4847 12.6823 55.8518 14.8646 56.5682C17.0552 57.2888 21.0123 57.0829 23.7052 56.1153L31.0099 53.4635V61.1429L29.5523 61.39C22.2475 62.5841 14.4693 62.0859 6.80226 59.5576Z" fill="black"/>
</svg>
