<svg width="75" height="78" viewBox="0 0 75 78" fill="none" xmlns="http://www.w3.org/2000/svg">
<g filter="url(#filter0_d_325_535)">
<path fill-rule="evenodd" clip-rule="evenodd" d="M69.8878 46.5885C70.3047 46.4582 70.5652 46.1977 70.6695 45.8068C70.7997 45.3639 70.7476 44.986 70.5131 44.6734L63.478 34.9805L70.5131 25.2875C70.7476 24.9488 70.7997 24.571 70.6695 24.1541C70.5652 23.7633 70.3047 23.5027 69.8878 23.3724L58.4752 19.6203V7.66052C58.4752 7.24363 58.3058 6.90489 57.9671 6.64433C57.5762 6.38377 57.1984 6.33166 56.8336 6.488L45.421 10.1619L38.3858 0.469012C38.1513 0.156337 37.8126 0 37.3696 0C36.9267 0 36.5879 0.156337 36.3534 0.469012L29.3183 10.1619L17.9056 6.488C17.5409 6.33166 17.163 6.38377 16.7722 6.64433C16.4335 6.90489 16.2641 7.24363 16.2641 7.66052V19.6203L4.85148 23.3724C4.43458 23.5027 4.17402 23.7633 4.06979 24.1541C3.93951 24.571 3.99162 24.9488 4.22613 25.2875L11.2613 34.9805L4.22613 44.6734C3.99162 44.986 3.93951 45.3639 4.06979 45.8068C4.17402 46.1977 4.43458 46.4582 4.85148 46.5885L16.2641 50.3406V62.3004C16.2641 62.7173 16.4335 63.056 16.7722 63.3166C17.163 63.5771 17.5409 63.6293 17.9056 63.4729L29.3183 59.799L36.3534 69.4919C36.614 69.8306 36.9527 70 37.3696 70C37.7865 70 38.1253 69.8306 38.3858 69.4919L45.421 59.799L56.8336 63.4729C57.1984 63.6293 57.5762 63.5771 57.9671 63.3166C58.3058 63.056 58.4752 62.7173 58.4752 62.3004V50.3406L69.8878 46.5885ZM49.3184 29.8707C49.1965 30.1651 49.0178 30.4326 48.7925 30.6578L36.6771 42.7732C36.452 42.9989 36.1846 43.1779 35.8903 43.3001C35.5959 43.4222 35.2803 43.4851 34.9616 43.4851C34.6428 43.4851 34.3273 43.4222 34.0329 43.3001C33.7385 43.1779 33.4711 42.9989 33.246 42.7732L25.9768 35.504C25.7515 35.2787 25.5728 35.0113 25.4509 34.7169C25.329 34.4225 25.2662 34.1071 25.2662 33.7885C25.2662 33.4699 25.329 33.1544 25.4509 32.86C25.5728 32.5657 25.7515 32.2982 25.9768 32.0729C26.2021 31.8476 26.4695 31.6689 26.7639 31.547C27.0582 31.4251 27.3737 31.3623 27.6923 31.3623C28.0109 31.3623 28.3264 31.4251 28.6208 31.547C28.9151 31.6689 29.1826 31.8476 29.4079 32.0729L34.9616 37.6315L45.3614 27.2268C45.5867 27.0015 45.8542 26.8228 46.1485 26.7008C46.4429 26.5789 46.7583 26.5162 47.077 26.5162C47.3956 26.5162 47.711 26.5789 48.0054 26.7008C48.2997 26.8228 48.5672 27.0015 48.7925 27.2268C49.0178 27.4521 49.1965 27.7195 49.3184 28.0139C49.4403 28.3082 49.5031 28.6237 49.5031 28.9423C49.5031 29.2609 49.4403 29.5764 49.3184 29.8707Z" fill="white"/>
<ellipse cx="37.25" cy="35.0001" rx="14.5833" ry="14.5833" fill="#2C49AE"/>
<path d="M19.7646 34.4474C20.5619 33.6501 21.8546 33.6501 22.652 34.4474L32.7883 44.5837C33.5856 45.3811 33.5856 46.6738 32.7883 47.4711C31.991 48.2684 30.6983 48.2684 29.9009 47.4711L19.7646 37.3348C18.9673 36.5374 18.9673 35.2447 19.7646 34.4474Z" fill="white"/>
<path d="M30.0499 47.2636C29.2526 46.4663 29.2526 45.1736 30.0499 44.3763L51.6614 22.7647C52.4588 21.9674 53.7515 21.9674 54.5488 22.7647C55.3461 23.5621 55.3461 24.8548 54.5488 25.6521L32.9372 47.2636C32.1399 48.061 30.8472 48.061 30.0499 47.2636Z" fill="white"/>
<path fill-rule="evenodd" clip-rule="evenodd" d="M60.5564 43.3052C60.8552 43.2118 61.042 43.0251 61.1167 42.745C61.2101 42.4275 61.1727 42.1567 61.0046 41.9327L55.9624 34.9861L61.0046 28.0395C61.1727 27.7967 61.2101 27.526 61.1167 27.2272C61.042 26.9471 60.8552 26.7603 60.5564 26.667L52.3768 23.978V15.4068C52.3768 15.108 52.2554 14.8653 52.0126 14.6785C51.7325 14.4918 51.4617 14.4544 51.2003 14.5665L43.0206 17.1995L37.9784 10.2529C37.8103 10.0288 37.5675 9.91675 37.25 9.91675C36.9326 9.91675 36.6898 10.0288 36.5217 10.2529L31.4795 17.1995L23.2998 14.5665C23.0384 14.4544 22.7676 14.4918 22.4875 14.6785C22.2447 14.8653 22.1233 15.108 22.1233 15.4068V23.978L13.9436 26.667C13.6448 26.7603 13.4581 26.9471 13.3834 27.2272C13.29 27.526 13.3274 27.7967 13.4954 28.0395L18.5377 34.9861L13.4954 41.9327C13.3274 42.1567 13.29 42.4275 13.3834 42.745C13.4581 43.0251 13.6448 43.2118 13.9436 43.3052L22.1233 45.9942V54.5654C22.1233 54.8641 22.2447 55.1069 22.4875 55.2936C22.7676 55.4804 23.0384 55.5177 23.2998 55.4057L31.4795 52.7727L36.5217 59.7193C36.7085 59.962 36.9512 60.0834 37.25 60.0834C37.5488 60.0834 37.7916 59.962 37.9784 59.7193L43.0206 52.7727L51.2003 55.4057C51.4617 55.5177 51.7325 55.4804 52.0126 55.2936C52.2554 55.1069 52.3768 54.8641 52.3768 54.5654V45.9942L60.5564 43.3052ZM45.814 31.3241C45.7266 31.5351 45.5985 31.7267 45.437 31.8882L36.7537 40.5709C36.5924 40.7326 36.4007 40.8609 36.1898 40.9485C35.9788 41.036 35.7526 41.0811 35.5241 41.0811C35.2957 41.0811 35.0695 41.036 34.8585 40.9485C34.6476 40.8609 34.4559 40.7326 34.2946 40.5709L29.0846 35.3613C28.9231 35.1998 28.795 35.0081 28.7076 34.7972C28.6203 34.5862 28.5753 34.3601 28.5753 34.1318C28.5753 33.9035 28.6203 33.6774 28.7076 33.4664C28.795 33.2555 28.9231 33.0638 29.0846 32.9023C29.2461 32.7409 29.4377 32.6128 29.6487 32.5254C29.8597 32.438 30.0858 32.3931 30.3141 32.3931C30.5425 32.3931 30.7686 32.438 30.9796 32.5254C31.1905 32.6128 31.3822 32.7409 31.5437 32.9023L35.5241 36.886L42.9779 29.4293C43.1394 29.2678 43.3311 29.1397 43.542 29.0524C43.753 28.965 43.9791 28.92 44.2075 28.92C44.4358 28.92 44.6619 28.965 44.8729 29.0524C45.0839 29.1397 45.2756 29.2678 45.437 29.4293C45.5985 29.5907 45.7266 29.7824 45.814 29.9933C45.9014 30.2043 45.9463 30.4304 45.9463 30.6587C45.9463 30.8871 45.9014 31.1132 45.814 31.3241Z" fill="#2C49AE"/>
<ellipse cx="37.1643" cy="35" rx="10.4522" ry="10.4514" fill="#2C49AE"/>
<path d="M24.6322 34.6039C25.2037 34.0325 26.1302 34.0325 26.7016 34.6039L33.9665 41.8682C34.538 42.4397 34.538 43.3661 33.9665 43.9375C33.3951 44.5089 32.4686 44.5089 31.8971 43.9375L24.6322 36.6731C24.0607 36.1017 24.0607 35.1753 24.6322 34.6039Z" fill="white"/>
<path d="M32.0039 43.7888C31.4324 43.2174 31.4324 42.291 32.0039 41.7196L47.4933 26.2313C48.0647 25.6599 48.9912 25.6599 49.5627 26.2313C50.1342 26.8027 50.1342 27.7291 49.5627 28.3006L34.0733 43.7888C33.5018 44.3603 32.5753 44.3603 32.0039 43.7888Z" fill="white"/>
</g>
<defs>
<filter id="filter0_d_325_535" x="0" y="0" width="74.7393" height="78" filterUnits="userSpaceOnUse" color-interpolation-filters="sRGB">
<feFlood flood-opacity="0" result="BackgroundImageFix"/>
<feColorMatrix in="SourceAlpha" type="matrix" values="0 0 0 0 0 0 0 0 0 0 0 0 0 0 0 0 0 0 127 0" result="hardAlpha"/>
<feOffset dy="4"/>
<feGaussianBlur stdDeviation="2"/>
<feComposite in2="hardAlpha" operator="out"/>
<feColorMatrix type="matrix" values="0 0 0 0 0 0 0 0 0 0 0 0 0 0 0 0 0 0 0.25 0"/>
<feBlend mode="normal" in2="BackgroundImageFix" result="effect1_dropShadow_325_535"/>
<feBlend mode="normal" in="SourceGraphic" in2="effect1_dropShadow_325_535" result="shape"/>
</filter>
</defs>
</svg>
