<svg width="196" height="30" viewBox="0 0 196 30" fill="none" xmlns="http://www.w3.org/2000/svg">
<path d="M185.968 13.1763V17.2602H188.838V21.3127C188.846 21.6226 188.833 21.9543 188.789 22.2393L188.765 22.3774C188.761 22.4093 188.755 22.4411 188.748 22.4726L188.725 22.5721C188.721 22.5893 188.716 22.6064 188.711 22.6234L188.677 22.7286C188.419 23.4746 187.642 24.4203 185.896 24.4203C184.036 24.4203 183.29 23.3349 183.086 22.5725L183.062 22.4726L183.044 22.3774C182.992 22.0652 182.97 21.6746 182.97 21.3127V8.51437C182.97 8.11191 182.994 7.67579 183.067 7.32077L183.116 7.10462L183.128 7.05871L183.155 6.96383L183.171 6.91448L183.206 6.81272C183.472 6.10574 184.173 5.16387 185.881 5.16387C187.199 5.16387 187.908 5.70099 188.288 6.25609L188.355 6.36015C188.376 6.39458 188.396 6.42939 188.415 6.4642L188.468 6.56673L188.515 6.66773L188.555 6.76605L188.59 6.86054L188.619 6.95159L188.644 7.03729L188.664 7.11763L188.68 7.19108C188.688 7.22781 188.694 7.26683 188.7 7.30738L188.717 7.43248L188.724 7.49751L188.741 7.69415L188.753 7.88237L188.763 8.13946L188.765 8.27144V9.82542H195.817L195.819 8.85791L195.823 8.51208L195.822 8.2439L195.816 7.93134L195.81 7.7634L195.797 7.50134L195.779 7.23278L195.764 7.05336C195.287 2.326 191.733 0.506899 187.409 0.190517L187.12 0.171389L186.828 0.157234C186.682 0.151051 186.535 0.14646 186.388 0.143462L186.092 0.139636C186.042 0.138871 185.992 0.138871 185.942 0.138871L185.645 0.140784L185.497 0.143462L185.203 0.151496L184.91 0.16412L184.62 0.180953L184.333 0.201994C184.237 0.210028 184.142 0.218445 184.047 0.228009L183.764 0.258614C183.718 0.26397 183.671 0.269326 183.624 0.275447L183.346 0.312938C182.7 0.405902 182.078 0.538652 181.489 0.71578L181.239 0.794588C178.506 1.69094 176.521 3.59688 176.113 7.05336L176.071 7.43707L176.042 7.73432L176.016 8.04573L175.993 8.35561C175.98 8.55837 175.972 8.74888 175.972 8.9065L175.973 20.8303L175.975 20.9783L175.981 21.2033L175.988 21.3609L175.998 21.5292L176.01 21.7125L176.026 21.9141L176.057 22.2603L176.084 22.5258C176.479 26.9192 179.809 28.8733 183.883 29.3343L184.169 29.3642C184.647 29.4101 185.134 29.4353 185.626 29.443L185.923 29.4449L186.221 29.443C186.71 29.4363 187.199 29.41 187.685 29.3642L187.972 29.3343C192.06 28.8733 195.367 26.9192 195.77 22.5258L195.803 22.1387L195.827 21.8108L195.849 21.4435L195.862 21.1272L195.873 20.6796V13.1759H185.968L185.968 13.1763ZM137.343 0.892142H130.262V21.6073C130.273 21.9684 130.262 22.3739 130.199 22.6712L130.179 22.7615L130.153 22.8571C130.143 22.891 130.132 22.9247 130.121 22.9581L130.084 23.0633C129.817 23.7757 129.136 24.7049 127.508 24.7049C125.981 24.7049 125.284 23.8663 124.992 23.1716L124.95 23.0633C124.943 23.0458 124.937 23.0282 124.931 23.0105L124.897 22.9072L124.87 22.8085C124.866 22.7929 124.862 22.7772 124.858 22.7615L124.838 22.6712C124.768 22.3739 124.758 21.9684 124.768 21.6077V0.891377H117.688V20.9646L117.686 21.1256L117.689 21.408L117.699 21.823L117.718 22.328L117.732 22.5817L117.741 22.7167L117.75 22.8158C118.097 26.5294 120.275 28.4625 123.352 29.2712L123.614 29.337C124.207 29.4761 124.808 29.5772 125.414 29.6396L125.704 29.6679L125.997 29.6917L126.294 29.7108C126.443 29.7196 126.593 29.7261 126.744 29.7314L127.048 29.7399L127.354 29.7437C127.405 29.7444 127.457 29.7444 127.508 29.7444L127.817 29.7425L127.97 29.7399L128.274 29.7314C128.425 29.7265 128.576 29.7196 128.725 29.7112L129.022 29.692L129.316 29.6679L129.607 29.6396C133.748 29.1997 136.855 27.314 137.283 22.8158L137.289 22.771L137.3 22.6532L137.318 22.4183L137.333 22.1337L137.341 21.9283L137.35 21.613L137.352 21.408L137.352 21.2155L137.347 21.0419L137.343 20.9646V0.892142ZM72.2738 0.892142L68.7412 22.7806L65.2105 0.892142H53.7871L53.1812 28.8936H60.1798L60.3692 2.97177L65.1845 28.8936H72.2849L77.1045 2.97177L77.2946 28.8936H84.3109L83.6846 0.892142H72.2738ZM29.9786 0.892142L24.7918 28.8936H32.3555L36.2645 2.97177L40.0794 28.8936H47.5907L42.4253 0.892142H29.9786ZM162.093 23.4367L155.499 0.892142H145.108V28.6017H151.982L151.583 5.33602L158.664 28.6017H168.63V0.892142H161.711L162.093 23.4367ZM98.5094 8.17963C98.3851 7.62644 98.421 7.0392 98.4853 6.732C98.5037 6.65051 98.5251 6.56826 98.5503 6.48639L98.5917 6.36359C98.8709 5.58698 99.5247 4.85781 101.023 4.85781C102.64 4.85781 103.589 5.86626 103.589 7.37892V9.09128H110.492V7.13981C110.492 2.73534 107.609 1.04096 104.529 0.447219L104.276 0.400928L104.022 0.359229L103.767 0.32212L103.513 0.289602L103.259 0.260909L103.006 0.236425C102.922 0.228774 102.838 0.221888 102.754 0.215767L102.504 0.198551L102.255 0.184779L102.009 0.174067L101.764 0.166416L101.523 0.16106L101.167 0.158382L101.01 0.159147L100.697 0.163738C100.645 0.164503 100.594 0.166033 100.542 0.167564L100.234 0.179041C100.131 0.183249 100.03 0.188605 99.9283 0.194343L99.6261 0.215384C95.4141 0.537504 92.1278 2.26746 91.4702 6.32419C91.2759 7.55987 91.2277 8.6563 91.5371 10.0557C92.0245 12.3553 93.9404 13.9919 96.1394 15.3642L96.4799 15.5735L96.6513 15.6768L96.9967 15.8799L97.3441 16.0804L97.693 16.2774L98.2163 16.5681L99.5913 17.3218L99.9257 17.507L100.254 17.6913L100.576 17.8757L100.89 18.0601C102.389 18.9523 103.589 19.8567 104.021 20.9382C104.26 21.5809 104.208 22.3904 104.093 22.9072L104.073 22.9906C104.044 23.1164 104.008 23.2402 103.963 23.3613L103.915 23.4826C103.597 24.2256 102.902 24.8591 101.374 24.8591C99.6318 24.8591 98.5828 23.8575 98.5828 22.3475L98.5806 19.6604H91.15V21.7967C91.15 26.8102 94.331 28.9881 98.3151 29.6346L98.6115 29.6798C98.8101 29.7081 99.0106 29.7326 99.2122 29.7536L99.5163 29.7827C99.8725 29.8133 100.233 29.834 100.596 29.8447L100.907 29.8516L101.064 29.8531L101.22 29.8539C101.324 29.8539 101.428 29.8531 101.532 29.8516L101.841 29.8447L101.994 29.8397L102.299 29.8259C102.4 29.821 102.501 29.8145 102.602 29.808L102.901 29.785C103.098 29.768 103.295 29.7476 103.491 29.7238L103.781 29.6863L104.067 29.6434C104.162 29.6281 104.256 29.6128 104.35 29.5956L104.629 29.5428C108.002 28.8672 110.511 27.0351 111.014 23.5125C111.084 22.9868 111.127 22.5017 111.15 22.0579L111.162 21.7687C111.164 21.7213 111.165 21.6746 111.166 21.6283L111.171 21.3579V21.0996L111.167 20.854L111.159 20.621L111.147 20.4014C111.145 20.3664 111.143 20.3313 111.141 20.2962L111.125 20.0958L111.108 19.9083L111.089 19.7342L111.058 19.4982L111.026 19.2924L110.984 19.0655L110.965 18.9726C110.479 16.5341 108.344 14.8118 105.973 13.394L105.632 13.1935L105.29 12.9969L104.946 12.8037L104.429 12.5206L103.744 12.1529L102.576 11.5313L102.095 11.2711L101.938 11.1851L101.631 11.0137L101.332 10.8427C99.8602 9.98954 98.7481 9.15173 98.5094 8.17963ZM7.44281 8.11038C7.31579 7.5813 7.33569 7.02466 7.40072 6.70101L7.4275 6.58012L7.45811 6.46C7.69147 5.61912 8.32921 4.75261 9.9773 4.75261C11.6151 4.75261 12.5795 5.77023 12.5795 7.2959V9.02892H19.5644V7.06215C19.5644 2.85929 16.9496 1.09414 14.0279 0.403606L13.7731 0.346222C13.5603 0.300654 13.3463 0.260218 13.1316 0.224948L12.8741 0.185162L12.6166 0.149583L12.3592 0.118595L12.1028 0.0918157C12.0176 0.0834205 11.9323 0.0756414 11.8469 0.0684792L11.5929 0.0493509L11.3404 0.0332832L11.0894 0.0206585L10.8408 0.011477L10.5955 0.00497335L10.2321 0H10.1131C10.0083 0 9.90385 0.00076513 9.80017 0.00229539L9.48953 0.008799C9.28371 0.01492 9.07942 0.0241016 8.87743 0.0355786L8.5752 0.0562371C8.52547 0.0600627 8.47535 0.0638884 8.42562 0.0684792L8.12836 0.0960239C8.03032 0.105834 7.93237 0.116674 7.83455 0.128542L7.5438 0.166033C7.30355 0.199316 7.06675 0.237573 6.83376 0.281568L6.5564 0.336657L6.28287 0.397103L6.01393 0.462904C5.92479 0.485858 5.83642 0.509194 5.74919 0.534061L5.48866 0.610574C2.77819 1.4438 0.824428 3.19136 0.331684 6.22357C0.128159 7.47877 0.0929633 8.58285 0.387156 9.99796C0.905149 12.4426 3.01691 14.1457 5.37963 15.5765L5.727 15.7839L5.90183 15.8864L6.25265 16.0884L6.78135 16.3864L7.48527 16.7743L8.52279 17.3432L9.02701 17.624L9.51708 17.9033L9.8346 18.09C9.88663 18.121 9.93866 18.152 9.98993 18.1833L10.2944 18.3704C11.5913 19.183 12.6074 20.0196 12.9992 21.0009C13.2563 21.6387 13.1962 22.4485 13.0749 22.9818L13.0543 23.0683C13.024 23.1926 12.9865 23.315 12.9418 23.4348L12.8932 23.5553C12.5673 24.3113 11.8668 24.9597 10.3193 24.9597C8.57023 24.9597 7.52391 23.9409 7.52391 22.4103L7.51396 19.7159H0V21.8567C0 27.8668 4.53149 29.8424 9.54998 29.9908L9.86406 29.9977L10.1793 30L10.4911 29.9981C10.6464 29.9958 10.801 29.992 10.954 29.9866L11.26 29.9728C11.4115 29.9652 11.5627 29.9552 11.7126 29.9438L12.011 29.9185L12.3056 29.8887C12.4035 29.878 12.5007 29.8665 12.5979 29.8542L12.8859 29.8141C12.9816 29.7999 13.0768 29.785 13.171 29.7693L13.4521 29.7196C16.9446 29.0654 19.5472 27.2134 20.0713 23.5901C20.1383 23.1138 20.1859 22.6349 20.214 22.1547L20.2278 21.8678L20.2362 21.5935C20.2382 21.5059 20.2395 21.4183 20.24 21.3307L20.2388 21.0801L20.2339 20.8418L20.2255 20.6161L20.214 20.4022L20.1998 20.201L20.1838 20.0124L20.1562 19.753L20.1268 19.5227L20.087 19.2606L20.0418 19.0062C19.5571 16.5968 17.4863 14.8822 15.1561 13.4724L14.8133 13.2685C14.756 13.2348 14.6986 13.2013 14.6412 13.1679L14.2942 12.9697L13.9464 12.775L13.5983 12.5837L13.2501 12.3959L11.7153 11.581L11.2241 11.3178L10.9054 11.1441L10.5944 10.9712L10.2922 10.7991L10.1449 10.713L9.85794 10.5416C8.58935 9.7688 7.65819 8.99564 7.44281 8.11038Z" fill="#1428A0"/>
</svg>
