<svg width="25" height="25" viewBox="0 0 25 25" fill="none" xmlns="http://www.w3.org/2000/svg">
<path d="M24.7723 23.6657L17.2064 16.0258C18.6165 14.3307 19.4664 12.1499 19.4664 9.76871C19.4664 4.37365 15.1087 0 9.73322 0C4.35776 0 0 4.37365 0 9.76871C0 15.1638 4.35776 19.5374 9.73322 19.5374C12.1755 19.5374 14.4063 18.6324 16.1155 17.1406L23.6708 24.7711C23.9749 25.0763 24.4682 25.0763 24.7722 24.7711C25.0759 24.4659 25.0759 23.9712 24.7723 23.6657ZM9.73322 17.9873C5.21078 17.9873 1.54447 14.3076 1.54447 9.76871C1.54447 5.22978 5.21078 1.5501 9.73322 1.5501C14.2557 1.5501 17.922 5.22978 17.922 9.76871C17.922 14.3076 14.2557 17.9873 9.73322 17.9873Z" fill="#2C49AE"/>
</svg>
