<svg width="38" height="38" viewBox="0 0 38 38" fill="none" xmlns="http://www.w3.org/2000/svg">
<g filter="url(#filter0_d_325_610)">
<path d="M6.89576 20V2.85714H4V0H8.34364C8.72764 0 9.09591 0.15051 9.36744 0.418419C9.63897 0.686328 9.79151 1.04969 9.79151 1.42857V18.5714H27.8002L30.696 7.14286H12.6873V4.28571H32.5522C32.7722 4.28572 32.9894 4.33523 33.1872 4.43048C33.385 4.52573 33.5582 4.66422 33.6936 4.83541C33.829 5.0066 33.923 5.206 33.9686 5.41844C34.0142 5.63089 34.0101 5.85079 33.9566 6.06143L30.3369 20.3471C30.2585 20.6561 30.0777 20.9303 29.8232 21.1262C29.5688 21.3221 29.2552 21.4286 28.9325 21.4286H8.34219C7.95819 21.4286 7.58991 21.2781 7.31838 21.0102C7.04685 20.7422 6.89576 20.3789 6.89576 20ZM9.79151 30C9.02351 30 8.28696 29.699 7.7439 29.1632C7.20084 28.6273 6.89576 27.9006 6.89576 27.1429C6.89576 26.3851 7.20084 25.6584 7.7439 25.1226C8.28696 24.5867 9.02351 24.2857 9.79151 24.2857C10.5595 24.2857 11.2961 24.5867 11.8391 25.1226C12.3822 25.6584 12.6873 26.3851 12.6873 27.1429C12.6873 27.9006 12.3822 28.6273 11.8391 29.1632C11.2961 29.699 10.5595 30 9.79151 30ZM27.1661 30C26.3981 30 25.6615 29.699 25.1184 29.1632C24.5754 28.6273 24.2703 27.9006 24.2703 27.1429C24.2703 26.3851 24.5754 25.6584 25.1184 25.1226C25.6615 24.5867 26.3981 24.2857 27.1661 24.2857C27.9341 24.2857 28.6706 24.5867 29.2137 25.1226C29.7567 25.6584 30.0618 26.3851 30.0618 27.1429C30.0618 27.9006 29.7567 28.6273 29.2137 29.1632C28.6706 29.699 27.9341 30 27.1661 30Z" fill="white"/>
</g>
<defs>
<filter id="filter0_d_325_610" x="0" y="0" width="38" height="38" filterUnits="userSpaceOnUse" color-interpolation-filters="sRGB">
<feFlood flood-opacity="0" result="BackgroundImageFix"/>
<feColorMatrix in="SourceAlpha" type="matrix" values="0 0 0 0 0 0 0 0 0 0 0 0 0 0 0 0 0 0 127 0" result="hardAlpha"/>
<feOffset dy="4"/>
<feGaussianBlur stdDeviation="2"/>
<feComposite in2="hardAlpha" operator="out"/>
<feColorMatrix type="matrix" values="0 0 0 0 0 0 0 0 0 0 0 0 0 0 0 0 0 0 0.25 0"/>
<feBlend mode="normal" in2="BackgroundImageFix" result="effect1_dropShadow_325_610"/>
<feBlend mode="normal" in="SourceGraphic" in2="effect1_dropShadow_325_610" result="shape"/>
</filter>
</defs>
</svg>
