<svg width="28" height="38" viewBox="0 0 28 38" fill="none" xmlns="http://www.w3.org/2000/svg">
<path d="M23.125 2.375C23.7383 2.375 24.3265 2.62522 24.7602 3.07062C25.1939 3.51602 25.4375 4.12011 25.4375 4.75V33.25C25.4375 33.8799 25.1939 34.484 24.7602 34.9294C24.3265 35.3748 23.7383 35.625 23.125 35.625H4.625C4.01169 35.625 3.42349 35.3748 2.98982 34.9294C2.55614 34.484 2.3125 33.8799 2.3125 33.25V4.75C2.3125 4.12011 2.55614 3.51602 2.98982 3.07062C3.42349 2.62522 4.01169 2.375 4.625 2.375H23.125ZM4.625 0C3.39837 0 2.22199 0.500445 1.35463 1.39124C0.487275 2.28204 0 3.49022 0 4.75V33.25C0 34.5098 0.487275 35.718 1.35463 36.6088C2.22199 37.4996 3.39837 38 4.625 38H23.125C24.3516 38 25.528 37.4996 26.3954 36.6088C27.2627 35.718 27.75 34.5098 27.75 33.25V4.75C27.75 3.49022 27.2627 2.28204 26.3954 1.39124C25.528 0.500445 24.3516 0 23.125 0L4.625 0Z" fill="#2C49AE"/>
<path d="M13.875 33.25C14.4883 33.25 15.0765 32.9998 15.5102 32.5544C15.9439 32.109 16.1875 31.5049 16.1875 30.875C16.1875 30.2451 15.9439 29.641 15.5102 29.1956C15.0765 28.7502 14.4883 28.5 13.875 28.5C13.2617 28.5 12.6735 28.7502 12.2398 29.1956C11.8061 29.641 11.5625 30.2451 11.5625 30.875C11.5625 31.5049 11.8061 32.109 12.2398 32.5544C12.6735 32.9998 13.2617 33.25 13.875 33.25Z" fill="#2C49AE"/>
</svg>
