<svg width="44" height="38" viewBox="0 0 44 38" fill="none" xmlns="http://www.w3.org/2000/svg">
<path d="M5.93824 0C4.36332 0 2.85291 0.63471 1.73927 1.7645C0.625635 2.8943 0 4.42662 0 6.02439V25.4878C0 27.0856 0.625635 28.6179 1.73927 29.7477C2.85291 30.8775 4.36332 31.5122 5.93824 31.5122H37.9079C39.4828 31.5122 40.9932 30.8775 42.1069 29.7477C43.2205 28.6179 43.8462 27.0856 43.8462 25.4878V6.02439C43.8462 4.42662 43.2205 2.8943 42.1069 1.7645C40.9932 0.63471 39.4828 0 37.9079 0H5.93824ZM2.74073 6.02439C2.74073 4.23376 4.17321 2.78049 5.93824 2.78049H37.9079C39.6729 2.78049 41.1054 4.23376 41.1054 6.02439V25.4878C41.1054 26.3481 40.7685 27.1732 40.1689 27.7816C39.5692 28.3899 38.7559 28.7317 37.9079 28.7317H5.93824C5.09021 28.7317 4.27691 28.3899 3.67726 27.7816C3.07761 27.1732 2.74073 26.3481 2.74073 25.4878V6.02439ZM8.67166 35.2195C8.30822 35.2195 7.95966 35.366 7.70267 35.6267C7.44567 35.8874 7.3013 36.241 7.3013 36.6098C7.3013 36.9785 7.44567 37.3321 7.70267 37.5928C7.95966 37.8535 8.30822 38 8.67166 38H35.1654C35.5288 38 35.8774 37.8535 36.1343 37.5928C36.3913 37.3321 36.5357 36.9785 36.5357 36.6098C36.5357 36.241 36.3913 35.8874 36.1343 35.6267C35.8774 35.366 35.5288 35.2195 35.1654 35.2195H8.67166Z" fill="#2C49AE"/>
</svg>
