<svg width="91" height="90" viewBox="0 0 91 90" fill="none" xmlns="http://www.w3.org/2000/svg">
<path d="M40.5124 89.8146C33.3823 89.0797 26.5314 86.6495 20.5321 82.7269C15.4807 79.4363 14.3388 78.0806 14.3388 75.3806C14.3388 69.9523 20.3127 60.4403 30.5335 49.6007C36.333 43.4413 44.4219 36.2243 45.2938 36.4212C46.9925 36.8037 60.5828 50.0508 65.6679 56.2834C73.7117 66.1441 77.4131 74.2218 75.5343 77.8219C74.1055 80.5557 65.2403 85.9051 58.7321 87.9583C53.3658 89.6514 46.3175 90.3714 40.5124 89.8146ZM7.5156 69.733C3.31365 63.2979 1.19299 56.964 0.169223 47.7951C-0.168283 44.7632 -0.044531 43.0363 0.939861 36.8262C2.16613 29.0804 6.57621 20.1196 11.8807 14.607C14.1363 12.2614 14.3388 12.2051 17.0895 13.1276C20.4364 14.2526 24.0084 16.7164 29.5379 21.7228L32.7667 24.6422L31.006 26.8079C22.8159 36.8599 14.1757 51.1083 10.9132 59.9228C9.14125 64.7154 8.42686 69.5248 9.19188 71.5274C9.70376 72.8774 9.23125 72.3711 7.50435 69.733H7.5156ZM81.21 70.8299C81.6263 68.8048 81.1031 65.0923 79.8712 61.3403C77.2105 53.2233 68.3117 38.1199 60.1384 27.8541L57.5677 24.6197L60.3465 22.0659C63.9803 18.7302 66.506 16.7333 69.2342 15.0345C71.3773 13.7014 74.4486 12.5145 75.7649 12.5145C76.5805 12.5145 79.4437 15.4845 81.7556 18.7246C85.434 23.9668 88.0046 29.9041 89.3101 36.1736C90.1708 40.2687 90.2439 49.0326 89.4451 53.1164C88.6954 56.7741 87.5642 60.343 86.0701 63.7647C85.0632 65.9754 82.56 70.2673 81.4575 71.6624C80.895 72.3824 80.8894 72.3768 81.21 70.8299ZM41.2606 10.9788C37.4917 9.06631 31.6754 7.01315 28.4578 6.46189C27.045 6.25146 25.6159 6.1705 24.1884 6.22001C21.539 6.35501 21.6571 6.22001 25.9097 4.20622C29.2433 2.60525 32.7664 1.43338 36.3948 0.718663C40.8949 -0.231978 49.3663 -0.237604 53.7989 0.690537C58.5802 1.70305 64.2222 3.79559 67.4004 5.75312L68.3454 6.33251L66.1797 6.22001C61.8709 6.00625 55.6046 7.73878 48.8657 11.0182C46.835 12.0082 45.0631 12.7957 44.9337 12.7732C43.69 12.2117 42.4688 11.6133 41.2606 10.9788Z" fill="#107C10"/>
</svg>
